<svg width="279" height="271" viewBox="0 0 279 271" fill="none" xmlns="http://www.w3.org/2000/svg">
<path d="M79.8115 2.14429H4.02725V127.586H79.8115V2.14429Z" fill="#E0E0E0"/>
<path d="M77.2883 2.14429H1.50403V127.586H77.2883V2.14429Z" fill="#EBEBEB"/>
<path d="M74.0628 4.68604H4.73575V125.037H74.0628V4.68604Z" fill="#FAFAFA"/>
<path d="M60.5578 20.3228H17.9299V109.394H60.5578V20.3228Z" fill="#EBEBEB"/>
<path d="M17.9299 77.879C17.8305 69.5572 25.3132 61.4344 33.5542 60.2722C37.482 59.7191 41.6335 60.4959 45.3314 58.9919C51.8818 56.3071 53.9701 47.6 60.564 45.0146L60.8624 109.401H17.9299V77.879Z" fill="#E0E0E0"/>
<path d="M246.296 37.0491L240.075 37.0828L240.243 68.0324L246.464 67.9988L246.296 37.0491Z" fill="#E0E0E0"/>
<path d="M202.303 37.126L186.194 37.2131L186.286 54.2976L202.395 54.2104L202.303 37.126Z" fill="#EBEBEB"/>
<path d="M218.336 37.0452L202.227 37.1323L202.32 54.2168L218.429 54.1296L218.336 37.0452Z" fill="#F5F5F5"/>
<path d="M186.217 41.9504C196.919 42.0374 207.652 41.9504 218.354 41.8013C218.394 41.7937 218.429 41.7724 218.455 41.7412C218.481 41.71 218.495 41.6708 218.495 41.6304C218.495 41.5899 218.481 41.5507 218.455 41.5195C218.429 41.4883 218.394 41.4671 218.354 41.4594C207.648 41.3973 196.935 41.4615 186.217 41.6521C186.177 41.6521 186.139 41.6678 186.111 41.6958C186.083 41.7238 186.067 41.7617 186.067 41.8013C186.067 41.8408 186.083 41.8788 186.111 41.9067C186.139 41.9347 186.177 41.9504 186.217 41.9504Z" fill="#E0E0E0"/>
<path d="M205.42 53.9325L176.155 54.0908L176.23 68.012L205.496 67.8536L205.42 53.9325Z" fill="#EBEBEB"/>
<path d="M234.542 53.7748L205.276 53.9331L205.352 67.8542L234.617 67.6959L234.542 53.7748Z" fill="#F5F5F5"/>
<path d="M176.167 57.9726C195.607 58.1964 215.116 57.9726 234.556 57.6867C234.596 57.6791 234.632 57.6579 234.657 57.6267C234.683 57.5955 234.697 57.5563 234.697 57.5158C234.697 57.4754 234.683 57.4362 234.657 57.405C234.632 57.3738 234.596 57.3525 234.556 57.3449C215.116 57.2393 195.607 57.2517 176.167 57.6805C176.134 57.6875 176.103 57.7058 176.082 57.7324C176.06 57.759 176.048 57.7923 176.048 57.8266C176.048 57.8609 176.06 57.8941 176.082 57.9207C176.103 57.9473 176.134 57.9657 176.167 57.9726Z" fill="#E0E0E0"/>
<path d="M278.601 68.0222H165.223V73.0128H278.601V68.0222Z" fill="#E0E0E0"/>
<path d="M188.392 70.4209H183.787V87.4435H188.392V70.4209Z" fill="#E0E0E0"/>
<path d="M257.097 70.4209H252.492V87.4435H257.097V70.4209Z" fill="#E0E0E0"/>
<path d="M252.368 25.5064L246.147 25.54L246.377 68.1051L252.598 68.0715L252.368 25.5064Z" fill="#EBEBEB"/>
<path d="M262.087 33.4336L252.423 33.4858L252.61 67.9779L262.274 67.9256L262.087 33.4336Z" fill="#F5F5F5"/>
<path d="M262.013 40.0924C258.796 40.3161 255.567 40.3161 252.349 40.0924C255.567 39.8686 258.796 39.8686 262.013 40.0924Z" fill="#E0E0E0"/>
<path d="M262.013 38.6444C258.796 38.8681 255.567 38.8681 252.349 38.6444C255.567 38.4206 258.796 38.4206 262.013 38.6444Z" fill="#E0E0E0"/>
<path d="M262.013 62.7269C258.796 62.9506 255.567 62.9506 252.349 62.7269C255.567 62.5031 258.796 62.5031 262.013 62.7269Z" fill="#E0E0E0"/>
<path d="M262.013 61.3038C258.796 61.5192 255.567 61.5192 252.349 61.3038C255.567 61.0801 258.796 61.0801 262.013 61.3038Z" fill="#E0E0E0"/>
<path d="M257.34 58.1403C257.246 58.1403 257.172 54.66 257.172 50.3655C257.172 46.071 257.246 42.5969 257.34 42.5969C257.433 42.5969 257.507 46.071 257.507 50.3655C257.507 54.66 257.42 58.1403 257.34 58.1403Z" fill="#E0E0E0"/>
<path d="M272.641 41.9133H262.119V67.9475H272.641V41.9133Z" fill="#EBEBEB"/>
<path d="M250.951 32.7898C250.957 33.1451 250.857 33.4942 250.664 33.7926C250.471 34.091 250.194 34.3252 249.868 34.4655C249.541 34.6057 249.18 34.6456 248.831 34.5801C248.482 34.5146 248.16 34.3466 247.907 34.0976C247.653 33.8485 247.48 33.5297 247.408 33.1817C247.336 32.8337 247.37 32.4722 247.505 32.1433C247.639 31.8144 247.868 31.533 248.163 31.335C248.458 31.1369 248.806 31.0311 249.161 31.031C249.631 31.0293 250.082 31.2131 250.417 31.5424C250.753 31.8718 250.944 32.32 250.951 32.7898Z" fill="#E0E0E0"/>
<path d="M249.714 37.7058H248.608V63.0252H249.714V37.7058Z" fill="#E0E0E0"/>
<path d="M90.7311 235.252C90.7311 235.252 85.0321 239.603 90.4887 245.326C90.5353 245.375 90.5913 245.414 90.6532 245.441C90.7151 245.467 90.7818 245.481 90.8492 245.482L140.637 245.19C140.637 245.19 144.888 240.423 141.358 234.929L90.7311 235.252Z" fill="#EBEBEB"/>
<path d="M129.63 239.783C129.63 239.839 123.415 239.882 115.79 239.882C108.164 239.882 101.943 239.839 101.943 239.783C101.943 239.727 108.158 239.683 115.79 239.683C123.421 239.683 129.63 239.727 129.63 239.783Z" fill="#E0E0E0"/>
<path d="M121.886 241.585C121.886 241.641 118.978 241.685 115.379 241.685C111.781 241.685 108.872 241.641 108.872 241.585C108.872 241.529 111.787 241.48 115.379 241.48C118.972 241.48 121.886 241.529 121.886 241.585Z" fill="#E0E0E0"/>
<path d="M134.72 245.028C134.72 245.028 134.832 244.456 134.987 243.537C135.187 242.337 135.282 241.123 135.273 239.907C135.261 238.689 135.143 237.475 134.919 236.278C134.745 235.358 134.596 234.799 134.627 234.786C134.688 234.909 134.736 235.038 134.77 235.171C134.886 235.524 134.981 235.883 135.056 236.247C135.322 237.447 135.464 238.672 135.478 239.901C135.485 241.13 135.367 242.357 135.124 243.562C135.031 244.021 134.938 244.394 134.863 244.643C134.788 244.892 134.739 245.034 134.72 245.028Z" fill="#E0E0E0"/>
<path d="M138.437 234.879C138.528 234.988 138.603 235.11 138.66 235.24C138.742 235.385 138.817 235.535 138.884 235.687C138.978 235.89 139.061 236.097 139.133 236.309C139.336 236.844 139.496 237.395 139.611 237.956C139.741 238.647 139.814 239.347 139.829 240.05C139.827 240.754 139.765 241.457 139.642 242.151C139.539 242.715 139.389 243.27 139.195 243.81C139.12 244.046 139.027 244.245 138.952 244.432C138.89 244.585 138.817 244.735 138.735 244.879C138.68 245.01 138.609 245.133 138.524 245.246C138.486 245.246 138.766 244.693 139.064 243.773C139.448 242.568 139.637 241.309 139.624 240.044C139.615 239.352 139.549 238.662 139.425 237.981C139.322 237.425 139.181 236.876 139.002 236.34C138.716 235.414 138.405 234.879 138.437 234.879Z" fill="#E0E0E0"/>
<path d="M98.5867 245.096C98.4947 244.994 98.4154 244.882 98.3506 244.761C98.2654 244.629 98.1885 244.492 98.1206 244.35C98.022 244.164 97.9328 243.974 97.8534 243.779C97.6428 243.271 97.4805 242.745 97.3686 242.206C97.2379 241.545 97.1733 240.873 97.1759 240.199C97.1908 239.525 97.2741 238.855 97.4245 238.198C97.5502 237.664 97.7271 237.144 97.9528 236.644C98.0348 236.45 98.1282 236.261 98.2325 236.078C98.3017 235.935 98.3828 235.798 98.4749 235.668C98.6178 235.451 98.7048 235.333 98.7172 235.345C98.7297 235.358 98.4314 235.842 98.0958 236.7C97.8927 237.199 97.7326 237.715 97.6172 238.241C97.4824 238.888 97.4055 239.545 97.3873 240.205C97.3883 240.864 97.4465 241.521 97.5613 242.169C97.6668 242.697 97.8122 243.217 97.9963 243.723C98.3195 244.587 98.6178 245.078 98.5867 245.096Z" fill="#E0E0E0"/>
<path d="M93.2108 246.308C93.1078 246.197 93.0219 246.072 92.956 245.935C92.8668 245.778 92.7899 245.614 92.7261 245.445C92.6132 245.243 92.5115 245.036 92.4215 244.823C92.1816 244.255 91.9924 243.666 91.856 243.064C91.5084 241.588 91.4745 240.055 91.7566 238.565C91.8661 237.956 92.0304 237.359 92.2475 236.781C92.3283 236.532 92.434 236.321 92.5148 236.128C92.5866 235.964 92.6675 235.805 92.7572 235.65C92.8229 235.512 92.902 235.381 92.9933 235.258C93.0306 235.258 92.7136 235.849 92.3718 236.831C92.1794 237.407 92.0319 237.997 91.9306 238.596C91.814 239.329 91.7599 240.072 91.769 240.814C91.8015 242.169 92.0642 243.507 92.5458 244.773C92.9001 245.737 93.2419 246.29 93.2108 246.308Z" fill="#E0E0E0"/>
<path d="M138.809 260.361V269.882H120.376V260.361H138.809Z" fill="#EBEBEB"/>
<path d="M79.2708 265.201C79.2708 265.288 79.2708 265.369 79.2708 265.456C79.3597 266.847 79.9769 268.15 80.9961 269.1C82.0153 270.05 83.3592 270.574 84.7524 270.565H139.655V269.875H126.603C125.341 269.875 124.13 269.373 123.237 268.481C122.344 267.588 121.843 266.377 121.843 265.114C121.843 263.852 122.344 262.641 123.237 261.748C124.13 260.855 125.341 260.354 126.603 260.354H139.655V259.341L84.7399 259.527C84.0049 259.529 83.2777 259.679 82.6017 259.968C81.9256 260.256 81.3143 260.677 80.8042 261.207C80.2941 261.736 79.8955 262.362 79.6321 263.048C79.3687 263.735 79.2459 264.467 79.2708 265.201Z" fill="#E0E0E0"/>
<path d="M138.809 265.239C138.809 265.295 135.018 265.344 130.345 265.344C125.671 265.344 121.88 265.295 121.88 265.239C121.88 265.183 125.671 265.139 130.345 265.139C135.018 265.139 138.809 265.189 138.809 265.239Z" fill="#E0E0E0"/>
<path d="M138.542 267.389C138.542 267.445 134.956 267.489 130.531 267.489C126.106 267.489 122.52 267.445 122.52 267.389C122.52 267.334 126.106 267.29 130.531 267.29C134.956 267.29 138.542 267.334 138.542 267.389Z" fill="#E0E0E0"/>
<path d="M138.809 269.353C138.809 269.409 135.584 269.453 131.606 269.453C127.629 269.453 124.403 269.409 124.403 269.353C124.403 269.297 127.629 269.254 131.606 269.254C135.584 269.254 138.809 269.297 138.809 269.353Z" fill="#E0E0E0"/>
<path d="M138.809 263.312C138.809 263.368 135.081 263.412 130.519 263.412C125.957 263.412 122.228 263.368 122.228 263.312C122.228 263.256 125.957 263.213 130.519 263.213C135.081 263.213 138.809 263.256 138.809 263.312Z" fill="#E0E0E0"/>
<path d="M138.542 261.386C138.542 261.442 135.236 261.485 131.165 261.485C127.094 261.485 123.782 261.442 123.782 261.386C123.782 261.33 127.088 261.286 131.165 261.286C135.242 261.286 138.542 261.33 138.542 261.386Z" fill="#E0E0E0"/>
<path d="M85.927 259.683C85.5005 260.113 85.1098 260.576 84.7586 261.069C83.9252 262.272 83.4865 263.704 83.5032 265.167C83.5199 266.63 83.9912 268.052 84.8518 269.235C85.2175 269.718 85.6184 270.173 86.0513 270.596C85.9102 270.514 85.7788 270.416 85.6597 270.304C85.3194 270.01 85.011 269.681 84.7399 269.322C83.8257 268.129 83.3225 266.671 83.3057 265.168C83.2889 263.664 83.7594 262.196 84.6467 260.982C84.9077 260.617 85.2078 260.281 85.5417 259.981C85.6565 259.866 85.786 259.765 85.927 259.683Z" fill="#F5F5F5"/>
<path d="M84.0687 259.478C83.6477 259.914 83.2573 260.379 82.9003 260.87C82.0701 262.073 81.6338 263.504 81.6516 264.966C81.6694 266.427 82.1405 267.847 82.9998 269.03C83.3632 269.514 83.7643 269.969 84.1993 270.391C84.0543 270.312 83.9206 270.213 83.8015 270.099C83.4612 269.805 83.1529 269.476 82.8817 269.117C81.9676 267.926 81.4639 266.471 81.4459 264.969C81.428 263.468 81.8968 262.001 82.7823 260.789C83.0435 260.422 83.3435 260.085 83.6772 259.782C83.7952 259.665 83.9266 259.563 84.0687 259.478Z" fill="#F5F5F5"/>
<path d="M121.37 259.683C120.949 260.116 120.561 260.579 120.208 261.069C119.375 262.272 118.936 263.704 118.953 265.167C118.97 266.63 119.441 268.052 120.302 269.235C120.667 269.718 121.068 270.173 121.501 270.596C121.357 270.515 121.224 270.417 121.103 270.304C120.765 270.01 120.459 269.681 120.19 269.322C119.272 268.131 118.764 266.675 118.743 265.172C118.722 263.668 119.188 262.198 120.072 260.982C120.331 260.615 120.631 260.28 120.967 259.981C121.089 259.867 121.225 259.767 121.37 259.683Z" fill="#F5F5F5"/>
<path d="M119.518 259.478C119.093 259.91 118.702 260.376 118.35 260.87C117.516 262.071 117.077 263.502 117.094 264.965C117.111 266.427 117.582 267.848 118.443 269.03C118.809 269.513 119.21 269.967 119.643 270.391C119.502 270.309 119.37 270.211 119.251 270.099C118.909 269.806 118.601 269.477 118.331 269.117C117.417 267.926 116.914 266.471 116.896 264.969C116.878 263.468 117.347 262.001 118.232 260.789C118.493 260.422 118.793 260.085 119.127 259.782C119.243 259.664 119.375 259.561 119.518 259.478Z" fill="#F5F5F5"/>
<path d="M92.1729 266.575L92.117 262.697C92.1366 262.36 92.0924 262.023 91.9865 261.703C91.93 261.542 91.8316 261.4 91.7015 261.291C91.5714 261.182 91.4145 261.109 91.2469 261.081C90.7622 260.864 90.0039 261.268 89.6683 261.827C89.3709 262.414 89.2398 263.072 89.2892 263.729C89.2768 264.75 89.3266 265.771 89.4384 266.786C89.4593 267.275 89.5821 267.753 89.7988 268.191C89.8955 268.418 90.0613 268.608 90.2725 268.734C90.4837 268.861 90.7295 268.918 90.9749 268.897C91.2203 268.875 91.4527 268.777 91.6388 268.615C91.8249 268.454 91.9553 268.238 92.0114 267.998C92.1555 267.539 92.2103 267.055 92.1729 266.575Z" fill="#F5F5F5"/>
<path d="M113.496 265.426C113.496 265.482 109.525 265.531 104.634 265.531C99.7427 265.531 95.7651 265.482 95.7651 265.426C95.7651 265.37 99.7365 265.326 104.634 265.326C109.531 265.326 113.496 265.37 113.496 265.426Z" fill="#F5F5F5"/>
<path d="M88.4937 259.304L88.3943 250.274H93.3103L93.4781 259.304H88.4937Z" fill="#F5F5F5"/>
<path d="M93.0182 251.877C92.2605 251.981 91.4951 252.016 90.7311 251.983C89.9692 252.016 89.2058 251.981 88.4502 251.877C89.2061 251.778 89.9694 251.744 90.7311 251.778C91.4949 251.744 92.2602 251.778 93.0182 251.877Z" fill="#E0E0E0"/>
<path d="M93.0182 253.275C92.2602 253.375 91.4949 253.408 90.7311 253.375C89.9694 253.408 89.2061 253.375 88.4502 253.275C89.2061 253.175 89.9694 253.142 90.7311 253.176C91.4949 253.142 92.2602 253.176 93.0182 253.275Z" fill="#E0E0E0"/>
<path d="M93.0182 254.667C92.2602 254.767 91.4949 254.8 90.7311 254.767C89.9694 254.8 89.2061 254.767 88.4502 254.667C89.2061 254.568 89.9694 254.535 90.7311 254.568C91.4949 254.535 92.2602 254.568 93.0182 254.667Z" fill="#E0E0E0"/>
<path d="M93.0182 256.06C92.2602 256.159 91.4949 256.193 90.7311 256.159C89.9694 256.193 89.2061 256.159 88.4502 256.06C89.2061 255.96 89.9694 255.927 90.7311 255.96C91.4949 255.927 92.2602 255.96 93.0182 256.06Z" fill="#E0E0E0"/>
<path d="M93.0182 257.451C92.2605 257.555 91.4951 257.59 90.7311 257.557C89.9692 257.591 89.2058 257.555 88.4502 257.451C89.2065 257.355 89.9694 257.322 90.7311 257.352C91.4949 257.322 92.2598 257.355 93.0182 257.451Z" fill="#E0E0E0"/>
<path d="M88.1333 250.031H142.613C143.238 253.255 143.238 256.57 142.613 259.795H88.3757V259.117H91.6944C91.8998 259.117 92.1031 259.077 92.2928 258.998C92.4825 258.919 92.6547 258.804 92.7996 258.658C92.9446 258.513 93.0594 258.34 93.1374 258.15C93.2154 257.96 93.2552 257.756 93.2543 257.551V252.15C93.2552 251.945 93.2154 251.741 93.1374 251.551C93.0594 251.361 92.9446 251.189 92.7996 251.043C92.6547 250.898 92.4825 250.782 92.2928 250.703C92.1031 250.625 91.8998 250.584 91.6944 250.584H88.1457L88.1333 250.031Z" fill="#EBEBEB"/>
<path d="M101.011 254.922H101.918C101.95 254.913 101.985 254.913 102.017 254.922C102.048 254.938 102.074 254.962 102.092 254.992C102.109 255.021 102.118 255.056 102.117 255.09C102.12 255.111 102.12 255.132 102.117 255.152C102.117 255.227 102.079 255.301 102.055 255.382C101.946 255.764 101.75 256.115 101.483 256.408C101.39 256.525 101.273 256.622 101.14 256.691C101.007 256.761 100.862 256.802 100.712 256.812H100.6C100.47 256.788 100.347 256.735 100.239 256.658C100.132 256.58 100.043 256.48 99.9788 256.364C99.7895 256.032 99.6969 255.653 99.7116 255.27C99.7134 255.006 99.7489 254.743 99.8173 254.487C99.9169 254.101 100.102 253.742 100.358 253.437C100.454 253.308 100.578 253.203 100.719 253.128C100.861 253.052 101.018 253.009 101.178 253.002C101.296 253.002 101.413 253.027 101.52 253.077C101.778 253.22 101.969 253.459 102.055 253.742C102.06 253.772 102.06 253.804 102.055 253.835C102.063 253.865 102.063 253.897 102.055 253.928C102.038 253.958 102.014 253.983 101.984 254C101.955 254.018 101.921 254.027 101.887 254.027C101.867 254.034 101.845 254.034 101.825 254.027C101.796 254.02 101.769 254.005 101.748 253.984C101.726 253.963 101.71 253.938 101.7 253.909C101.673 253.832 101.635 253.759 101.588 253.692C101.543 253.616 101.48 253.553 101.404 253.508C101.328 253.464 101.242 253.439 101.153 253.437C101.045 253.438 100.94 253.475 100.855 253.543C100.627 253.731 100.455 253.978 100.358 254.257C100.221 254.582 100.149 254.93 100.147 255.283C100.138 255.56 100.191 255.836 100.302 256.091C100.336 256.191 100.399 256.278 100.483 256.341C100.568 256.404 100.669 256.441 100.774 256.445C100.863 256.435 100.948 256.405 101.024 256.359C101.1 256.313 101.165 256.251 101.216 256.178C101.424 255.931 101.582 255.646 101.682 255.339C101.265 255.339 101.06 255.339 101.029 255.339C100.971 255.339 100.916 255.316 100.875 255.275C100.835 255.234 100.812 255.179 100.812 255.121V255.053C100.829 255.014 100.856 254.981 100.892 254.958C100.927 254.935 100.968 254.922 101.011 254.922Z" fill="#FAFAFA"/>
<path d="M104.106 253.145C104.106 253.145 104.106 253.188 104.106 253.213C104.143 253.342 104.35 254.466 104.727 256.588C104.73 256.604 104.73 256.621 104.727 256.637C104.735 256.67 104.735 256.704 104.727 256.737C104.713 256.767 104.69 256.793 104.661 256.811C104.632 256.828 104.599 256.837 104.565 256.836H104.534C104.499 256.83 104.466 256.814 104.44 256.79C104.413 256.766 104.394 256.734 104.385 256.7L104.168 255.575H103.049L102.508 256.706C102.513 256.718 102.513 256.731 102.508 256.743C102.49 256.771 102.465 256.794 102.436 256.81C102.406 256.826 102.374 256.835 102.34 256.836C102.303 256.836 102.267 256.825 102.235 256.805C102.208 256.786 102.186 256.761 102.171 256.732C102.156 256.703 102.148 256.67 102.148 256.637C102.142 256.619 102.142 256.6 102.148 256.582C102.179 256.501 102.235 256.383 102.316 256.215C103.099 254.5 103.559 253.493 103.72 253.182C103.735 253.144 103.761 253.111 103.794 253.087C103.827 253.063 103.866 253.048 103.907 253.045C103.946 253.043 103.984 253.051 104.019 253.069C104.054 253.086 104.084 253.112 104.106 253.145ZM103.863 253.903L103.242 255.177H104.099L103.863 253.903Z" fill="#FAFAFA"/>
<path d="M107.145 256.837H105.504C105.467 256.836 105.43 256.825 105.398 256.805C105.37 256.779 105.347 256.747 105.331 256.712C105.315 256.677 105.306 256.639 105.305 256.6C105.305 256.538 105.454 255.413 105.759 253.244C105.756 253.22 105.756 253.195 105.759 253.17C105.772 253.133 105.797 253.102 105.829 253.081C105.862 253.06 105.9 253.049 105.939 253.052C105.968 253.045 105.997 253.045 106.026 253.052C106.059 253.067 106.086 253.092 106.105 253.123C106.123 253.154 106.133 253.19 106.132 253.226L106.026 254.146C105.839 255.583 105.74 256.341 105.728 256.42H107.126C107.161 256.414 107.197 256.414 107.232 256.42C107.269 256.434 107.301 256.46 107.324 256.493C107.346 256.527 107.357 256.566 107.356 256.607C107.359 256.627 107.359 256.648 107.356 256.669C107.344 256.716 107.317 256.758 107.278 256.788C107.24 256.818 107.193 256.835 107.145 256.837Z" fill="#FAFAFA"/>
<path d="M109.388 253.145C109.388 253.145 109.388 253.188 109.388 253.213C109.425 253.344 109.643 254.456 110.01 256.588C110.012 256.604 110.012 256.621 110.01 256.638C110.008 256.673 109.997 256.707 109.979 256.737C109.964 256.767 109.941 256.793 109.913 256.811C109.884 256.828 109.851 256.837 109.817 256.836H109.786C109.751 256.829 109.719 256.813 109.693 256.789C109.666 256.764 109.647 256.734 109.637 256.7L109.506 255.575H108.388L107.847 256.706C107.85 256.718 107.85 256.731 107.847 256.743C107.826 256.77 107.8 256.793 107.77 256.809C107.74 256.825 107.707 256.834 107.673 256.836C107.636 256.835 107.599 256.824 107.567 256.805C107.54 256.786 107.518 256.761 107.503 256.732C107.488 256.703 107.48 256.671 107.48 256.638C107.477 256.619 107.477 256.6 107.48 256.582C107.511 256.501 107.567 256.383 107.648 256.215C108.431 254.5 108.891 253.493 109.053 253.182C109.068 253.144 109.093 253.111 109.126 253.087C109.159 253.063 109.198 253.048 109.239 253.045C109.269 253.051 109.298 253.062 109.324 253.08C109.35 253.097 109.371 253.119 109.388 253.145ZM109.146 253.903L108.524 255.177H109.382L109.146 253.903Z" fill="#FAFAFA"/>
<path d="M111.992 255.084L112.291 255.904C112.458 256.377 112.545 256.619 112.545 256.644C112.555 256.676 112.555 256.711 112.545 256.743C112.528 256.772 112.503 256.795 112.473 256.812C112.444 256.828 112.411 256.836 112.378 256.837C112.303 256.837 112.253 256.793 112.216 256.706C112.179 256.619 112.216 256.644 112.185 256.619C112.098 256.414 111.949 255.998 111.744 255.463L110.818 256.706C110.799 256.736 110.774 256.761 110.743 256.78C110.713 256.798 110.679 256.809 110.644 256.812C110.611 256.818 110.577 256.818 110.544 256.812C110.514 256.795 110.49 256.771 110.473 256.741C110.457 256.712 110.449 256.678 110.451 256.644V256.631C110.472 256.571 110.506 256.516 110.55 256.47C110.861 256.066 111.172 255.587 111.582 255.034C111.545 254.922 111.507 254.823 111.47 254.723C111.122 253.785 110.942 253.3 110.942 253.269C110.936 253.236 110.936 253.203 110.942 253.17C110.957 253.14 110.981 253.115 111.009 253.098C111.038 253.08 111.07 253.071 111.103 253.07C111.141 253.071 111.177 253.081 111.209 253.101C111.241 253.121 111.267 253.149 111.284 253.182L111.837 254.661L112.931 253.17C112.949 253.141 112.975 253.117 113.006 253.101C113.036 253.085 113.07 253.076 113.105 253.077C113.133 253.07 113.163 253.07 113.192 253.077C113.224 253.092 113.25 253.117 113.268 253.148C113.286 253.179 113.294 253.215 113.291 253.251C113.3 253.281 113.3 253.313 113.291 253.344L111.992 255.084Z" fill="#FAFAFA"/>
<path d="M116.069 253.058C116.098 253.052 116.128 253.052 116.156 253.058C116.188 253.072 116.215 253.096 116.234 253.126C116.253 253.156 116.263 253.19 116.262 253.226C115.995 255.351 115.845 256.495 115.821 256.669C115.774 256.991 115.653 257.297 115.466 257.564C115.289 257.813 115.029 257.99 114.732 258.063C114.436 258.136 114.123 258.1 113.85 257.961C113.606 257.861 113.403 257.681 113.272 257.452C113.267 257.421 113.267 257.389 113.272 257.359C113.263 257.326 113.263 257.292 113.272 257.259C113.288 257.228 113.312 257.202 113.342 257.185C113.372 257.167 113.406 257.158 113.44 257.16C113.469 257.162 113.498 257.17 113.524 257.184C113.549 257.198 113.572 257.217 113.589 257.24C113.681 257.382 113.805 257.499 113.951 257.582C114.097 257.665 114.261 257.712 114.428 257.719C114.55 257.713 114.669 257.681 114.776 257.624C114.883 257.567 114.977 257.487 115.05 257.39C115.274 257.091 115.4 256.731 115.41 256.358C115.348 256.459 115.266 256.545 115.168 256.613C115 256.74 114.794 256.807 114.584 256.805H114.472C114.341 256.782 114.218 256.73 114.11 256.653C114.003 256.575 113.914 256.474 113.85 256.358C113.656 256.027 113.561 255.647 113.577 255.264C113.577 255.065 113.577 254.86 113.577 254.643C113.606 254.307 113.681 253.835 113.801 253.226C113.795 253.207 113.795 253.188 113.801 253.17C113.81 253.131 113.833 253.096 113.864 253.071C113.896 253.047 113.935 253.033 113.975 253.033C114.008 253.035 114.04 253.046 114.068 253.064C114.098 253.077 114.123 253.099 114.141 253.127C114.159 253.154 114.168 253.187 114.167 253.219C114.15 253.47 114.119 253.718 114.074 253.965C114.01 254.346 113.969 254.73 113.95 255.115C113.938 255.418 113.986 255.72 114.093 256.004C114.205 256.271 114.366 256.401 114.578 256.401H114.646C114.852 256.336 115.027 256.197 115.137 256.01C115.333 255.739 115.471 255.43 115.541 255.103L115.79 253.238C115.786 253.211 115.786 253.184 115.79 253.157C115.797 253.129 115.811 253.103 115.831 253.082C115.851 253.06 115.876 253.044 115.903 253.034C115.931 253.024 115.96 253.021 115.989 253.025C116.018 253.03 116.046 253.041 116.069 253.058Z" fill="#FAFAFA"/>
<path d="M140.581 259.919C140.525 259.919 140.475 257.682 140.475 254.916C140.475 252.151 140.525 249.907 140.581 249.907C140.637 249.907 140.68 252.151 140.68 254.916C140.68 257.682 140.624 259.919 140.581 259.919Z" fill="#F5F5F5"/>
<path d="M95.9827 259.919C95.9267 259.919 95.8832 257.682 95.8832 254.916C95.8832 252.151 95.9267 249.907 95.9827 249.907C96.0386 249.907 96.0821 252.151 96.0821 254.916C96.0821 257.682 96.0386 259.919 95.9827 259.919Z" fill="#E0E0E0"/>
<path d="M141.519 259.919C141.469 259.919 141.42 257.682 141.42 254.916C141.42 252.151 141.469 249.907 141.519 249.907C141.569 249.907 141.625 252.151 141.625 254.916C141.625 257.682 141.575 259.919 141.519 259.919Z" fill="#F5F5F5"/>
<path d="M95.094 259.919C95.038 259.919 94.9883 257.682 94.9883 254.916C94.9883 252.151 95.038 249.907 95.094 249.907C95.1499 249.907 95.1934 252.151 95.1934 254.916C95.1934 257.682 95.1437 259.919 95.094 259.919Z" fill="#E0E0E0"/>
<path d="M127.355 251.554L133.11 256.196L133.16 256.24H133.098L132.334 256.445L127.473 257.719L123.067 255.854L121.824 255.32L121.495 255.177L121.414 255.14H121.383H121.414L121.501 255.177L121.83 255.308L123.073 255.83L127.486 257.694L132.346 256.414L133.117 256.209V256.265L127.368 251.61" fill="#E0E0E0"/>
<path d="M132.582 255.463L132.899 255.755L133.322 255.668L133.135 256.053L133.353 256.426L132.924 256.376L132.638 256.693L132.557 256.271L132.166 256.097L132.539 255.892L132.582 255.463Z" fill="#E0E0E0"/>
<path d="M127.063 257.29L127.275 257.471L127.548 257.396L127.442 257.657L127.598 257.887L127.318 257.868L127.144 258.086L127.076 257.819L126.815 257.719L127.051 257.57L127.063 257.29Z" fill="#E0E0E0"/>
<path d="M120.96 254.792L121.302 254.81L121.513 254.543L121.6 254.873L121.924 254.991L121.632 255.171L121.619 255.519L121.352 255.301L121.029 255.395L121.153 255.071L120.96 254.792Z" fill="#E0E0E0"/>
<path d="M135.168 251.628L135.509 251.653L135.721 251.38L135.808 251.715L136.125 251.834L135.839 252.014L135.826 252.356L135.559 252.138L135.23 252.231L135.36 251.914L135.168 251.628Z" fill="#E0E0E0"/>
<path d="M127.076 251.405L127.293 251.417L127.43 251.25L127.486 251.461L127.691 251.535L127.505 251.653L127.498 251.871L127.331 251.728L127.119 251.79L127.2 251.585L127.076 251.405Z" fill="#E0E0E0"/>
<path d="M135.646 251.871C135.646 251.871 133.782 251.827 131.488 251.734C129.195 251.641 127.331 251.535 127.331 251.51C127.331 251.485 129.195 251.554 131.488 251.653C133.782 251.753 135.646 251.846 135.646 251.871Z" fill="#E0E0E0"/>
<path d="M137.74 249.95H82.4839C81.763 248.31 81.5828 246.75 82.4839 245.351H137.74C138.083 246.069 138.261 246.855 138.261 247.651C138.261 248.447 138.083 249.232 137.74 249.95Z" fill="#E0E0E0"/>
<path d="M123.863 246.663H93.9255V248.335H123.863V246.663Z" fill="#EBEBEB"/>
<path d="M84.6032 249.975C84.4207 249.821 84.2725 249.63 84.1682 249.416C83.8866 248.914 83.7149 248.358 83.6645 247.785C83.6141 247.211 83.6863 246.634 83.8761 246.091C83.9377 245.86 84.0527 245.647 84.2117 245.469C84.1573 245.696 84.0909 245.92 84.0128 246.14C83.8683 246.672 83.8179 247.226 83.8637 247.775C83.9178 248.323 84.0627 248.859 84.2925 249.36C84.4143 249.555 84.5183 249.761 84.6032 249.975Z" fill="#E0E0E0"/>
<path d="M85.8027 249.975C85.616 249.825 85.467 249.634 85.3676 249.416C85.0823 248.916 84.9085 248.361 84.858 247.787C84.809 247.213 84.881 246.635 85.0693 246.091C85.1369 245.863 85.2512 245.651 85.4049 245.469C85.3542 245.697 85.2877 245.922 85.206 246.14C85.0639 246.673 85.0155 247.226 85.0631 247.775C85.1112 248.324 85.2564 248.861 85.4919 249.36C85.6076 249.558 85.7114 249.764 85.8027 249.975Z" fill="#E0E0E0"/>
<path d="M135.503 249.863C135.724 249.134 135.855 248.381 135.895 247.62C135.862 246.856 135.739 246.099 135.528 245.364C135.934 246.044 136.131 246.829 136.094 247.62C136.125 248.41 135.92 249.191 135.503 249.863Z" fill="#F5F5F5"/>
<path d="M134.478 249.857C134.416 249.857 134.645 248.869 134.639 247.651C134.633 246.433 134.409 245.463 134.471 245.451C134.964 246.878 134.964 248.43 134.471 249.857H134.478Z" fill="#F5F5F5"/>
<path d="M169.325 228.515L91.682 228.465C89.462 228.465 87.264 228.026 85.2134 227.176C83.1627 226.326 81.2997 225.08 79.7305 223.51C78.1614 221.939 76.9169 220.075 76.0681 218.024C75.2193 215.973 74.7829 213.775 74.7837 211.555L74.821 16.9107C74.8218 14.6891 75.2602 12.4895 76.1111 10.4374C76.962 8.38521 78.2088 6.52076 79.7802 4.95046C81.3517 3.38015 83.217 2.13475 85.2698 1.28535C87.3226 0.435946 89.5225 -0.000815158 91.7441 1.14213e-06L169.38 0.0497214C173.864 0.0530153 178.163 1.83593 181.332 5.00676C184.502 8.1776 186.283 12.477 186.285 16.9604L186.241 211.604C186.241 213.826 185.804 216.025 184.954 218.077C184.103 220.129 182.857 221.994 181.286 223.564C179.715 225.135 177.85 226.38 175.798 227.23C173.745 228.079 171.546 228.516 169.325 228.515Z" fill="#263238"/>
<path d="M169.126 6.99166H154.073C153.582 7.00133 153.097 7.10803 152.647 7.3056C152.197 7.50318 151.791 7.78775 151.451 8.14295C151.112 8.49814 150.846 8.91696 150.669 9.37532C150.491 9.83369 150.406 10.3226 150.419 10.8138V13.5422C150.43 14.0334 150.345 14.5221 150.167 14.9802C149.989 15.4382 149.722 15.8565 149.382 16.2112C149.042 16.5658 148.635 16.8497 148.185 17.0465C147.734 17.2433 147.25 17.3492 146.758 17.3581H117.418C116.927 17.3484 116.442 17.2417 115.992 17.0441C115.542 16.8466 115.136 16.562 114.796 16.2068C114.456 15.8516 114.19 15.4328 114.013 14.9744C113.836 14.5161 113.751 14.0272 113.763 13.5359V10.8014C113.779 10.3096 113.697 9.81956 113.523 9.35952C113.348 8.89947 113.085 8.47852 112.747 8.12091C112.409 7.76331 112.003 7.47612 111.554 7.27591C111.104 7.0757 110.62 6.96642 110.128 6.95437H104.833H91.6634C90.1067 6.9511 88.5647 7.25468 87.1255 7.84773C85.6863 8.44079 84.378 9.31169 83.2756 10.4107C82.1732 11.5096 81.2981 12.8151 80.7006 14.2525C80.103 15.6898 79.7946 17.2309 79.7929 18.7875L79.7556 208.777C79.7507 210.33 80.0525 211.87 80.6438 213.307C81.235 214.744 82.104 216.05 83.201 217.15C84.298 218.251 85.6014 219.124 87.0365 219.72C88.4715 220.315 90.0101 220.622 91.5639 220.622L169.051 220.666C170.607 220.666 172.147 220.361 173.585 219.766C175.022 219.172 176.328 218.3 177.429 217.201C178.53 216.101 179.403 214.796 179.999 213.359C180.595 211.922 180.902 210.382 180.903 208.826L180.977 18.8372C180.977 17.2811 180.671 15.7403 180.075 14.3027C179.479 12.8651 178.606 11.559 177.506 10.459C176.405 9.35891 175.099 8.4865 173.661 7.89157C172.223 7.29664 170.682 6.99085 169.126 6.99166Z" fill="white"/>
<path d="M181.829 37.1775C181.829 37.2645 158.952 37.339 130.743 37.339C102.533 37.339 79.6748 37.2458 79.6748 37.1775C79.6748 37.1091 102.546 37.0159 130.774 37.0159C159.002 37.0159 181.829 37.0842 181.829 37.1775Z" fill="#263238"/>
<path d="M90.3333 30.1358C90.2582 30.1366 90.1854 30.1101 90.1283 30.0613L87.1762 27.4697C87.1413 27.4414 87.1135 27.4053 87.0951 27.3642C87.0768 27.3232 87.0683 27.2784 87.0705 27.2335C87.07 27.1882 87.0799 27.1434 87.0992 27.1025C87.1186 27.0616 87.1471 27.0256 87.1824 26.9973L90.1345 24.5114C90.1981 24.4599 90.2795 24.4355 90.3609 24.4437C90.4424 24.4518 90.5174 24.4918 90.5695 24.5549C90.5958 24.586 90.6156 24.6222 90.6277 24.6611C90.6397 24.7001 90.6439 24.741 90.6398 24.7816C90.6358 24.8222 90.6236 24.8615 90.6041 24.8973C90.5845 24.9331 90.558 24.9646 90.526 24.9899L87.8598 27.2149L90.5322 29.5641C90.5633 29.5903 90.5888 29.6225 90.6072 29.6587C90.6256 29.695 90.6366 29.7345 90.6395 29.775C90.6424 29.8156 90.6371 29.8563 90.6241 29.8948C90.611 29.9333 90.5903 29.9687 90.5633 29.9991C90.5383 30.0382 90.5044 30.071 90.4645 30.0947C90.4246 30.1184 90.3797 30.1325 90.3333 30.1358Z" fill="#263238"/>
<path d="M154.751 27.0659C154.751 27.1591 145.136 27.2275 133.272 27.2275C121.408 27.2275 111.793 27.1591 111.793 27.0659C111.793 26.9727 121.408 26.9043 133.272 26.9043C145.136 26.9043 154.751 26.9789 154.751 27.0659Z" fill="#263238"/>
<path d="M167.193 27.0471C167.193 27.2684 167.127 27.4847 167.004 27.6687C166.881 27.8526 166.707 27.996 166.502 28.0807C166.298 28.1653 166.073 28.1875 165.856 28.1443C165.639 28.1012 165.44 27.9946 165.283 27.8382C165.127 27.6817 165.02 27.4824 164.977 27.2654C164.934 27.0484 164.956 26.8235 165.041 26.619C165.125 26.4146 165.269 26.2399 165.453 26.117C165.637 25.9941 165.853 25.9285 166.074 25.9285C166.371 25.9285 166.655 26.0463 166.865 26.2561C167.075 26.4659 167.193 26.7505 167.193 27.0471Z" fill="#263238"/>
<path d="M170.412 27.0472C170.412 27.2687 170.346 27.4852 170.223 27.6693C170.1 27.8534 169.925 27.9968 169.72 28.0813C169.515 28.1658 169.29 28.1875 169.073 28.1439C168.856 28.1002 168.656 27.993 168.5 27.836C168.344 27.6789 168.238 27.479 168.195 27.2616C168.153 27.0442 168.176 26.819 168.262 26.6147C168.347 26.4104 168.492 26.2362 168.676 26.114C168.861 25.9918 169.078 25.9273 169.3 25.9285C169.446 25.9285 169.591 25.9575 169.727 26.0138C169.862 26.0701 169.985 26.1526 170.088 26.2565C170.192 26.3605 170.274 26.4838 170.329 26.6195C170.385 26.7552 170.413 26.9005 170.412 27.0472Z" fill="#263238"/>
<path d="M173.638 27.0471C173.638 27.2684 173.572 27.4847 173.449 27.6687C173.326 27.8526 173.152 27.996 172.947 28.0807C172.743 28.1653 172.518 28.1875 172.301 28.1443C172.084 28.1012 171.884 27.9946 171.728 27.8382C171.572 27.6817 171.465 27.4824 171.422 27.2654C171.379 27.0484 171.401 26.8235 171.485 26.619C171.57 26.4146 171.714 26.2399 171.898 26.117C172.081 25.9941 172.298 25.9285 172.519 25.9285C172.816 25.9285 173.1 26.0463 173.31 26.2561C173.52 26.4659 173.638 26.7505 173.638 27.0471Z" fill="#263238"/>
<path d="M121.047 78.9166C121.047 79.6375 120.749 80.0725 120.252 80.0725C120.135 80.0839 120.017 80.0533 119.92 79.9861C119.824 79.919 119.754 79.8196 119.724 79.7059C119.64 79.8265 119.527 79.9237 119.396 79.9879C119.264 80.0522 119.118 80.0813 118.972 80.0725C118.704 80.0521 118.455 79.9316 118.273 79.7351C118.091 79.5386 117.99 79.2807 117.99 79.0129C117.99 78.7451 118.091 78.4872 118.273 78.2907C118.455 78.0942 118.704 77.9737 118.972 77.9533C119.103 77.9464 119.234 77.9697 119.354 78.0214C119.475 78.0731 119.582 78.1519 119.668 78.2516V77.9781H120.127V79.3951C120.127 79.6064 120.227 79.681 120.345 79.681C120.569 79.681 120.693 79.4138 120.693 78.9228C120.696 78.7171 120.657 78.513 120.576 78.3238C120.495 78.1345 120.376 77.9643 120.225 77.8243C120.075 77.6842 119.896 77.5773 119.702 77.5107C119.507 77.4441 119.301 77.4191 119.096 77.4374C118.88 77.4181 118.663 77.4439 118.458 77.5132C118.252 77.5825 118.064 77.6938 117.904 77.84C117.744 77.9861 117.617 78.164 117.529 78.3622C117.442 78.5604 117.397 78.7746 117.397 78.9911C117.397 79.2077 117.442 79.4219 117.529 79.6201C117.617 79.8183 117.744 79.9962 117.904 80.1423C118.064 80.2885 118.252 80.3998 118.458 80.4691C118.663 80.5384 118.88 80.5642 119.096 80.5449C119.376 80.5461 119.653 80.4823 119.904 80.3584L120.016 80.694C119.727 80.8263 119.413 80.8921 119.096 80.8867C118.837 80.9015 118.579 80.8633 118.335 80.7746C118.092 80.6859 117.87 80.5484 117.681 80.3707C117.493 80.1929 117.343 79.9786 117.241 79.7408C117.138 79.5031 117.085 79.2469 117.085 78.988C117.085 78.7291 117.138 78.473 117.241 78.2352C117.343 77.9975 117.493 77.7832 117.681 77.6054C117.87 77.4277 118.092 77.2902 118.335 77.2015C118.579 77.1127 118.837 77.0746 119.096 77.0894C119.346 77.0704 119.598 77.1038 119.835 77.1872C120.072 77.2707 120.29 77.4025 120.473 77.5743C120.656 77.746 120.802 77.954 120.901 78.1851C121 78.4162 121.05 78.6653 121.047 78.9166ZM119.674 79.0098C119.667 78.8887 119.624 78.7724 119.551 78.6753C119.479 78.5781 119.379 78.5043 119.265 78.4629C119.151 78.4215 119.028 78.4144 118.91 78.4424C118.792 78.4704 118.685 78.5324 118.601 78.6206C118.518 78.7088 118.463 78.8195 118.441 78.9389C118.42 79.0583 118.435 79.1813 118.483 79.2927C118.53 79.4041 118.61 79.4991 118.711 79.5659C118.812 79.6327 118.931 79.6683 119.052 79.6686C119.137 79.6687 119.221 79.6515 119.299 79.618C119.377 79.5844 119.447 79.5353 119.506 79.4736C119.564 79.4118 119.609 79.3389 119.638 79.2591C119.667 79.1793 119.679 79.0945 119.674 79.0098Z" fill="#263238"/>
<path d="M144.533 80.0477C144.533 80.1347 140.034 80.2093 134.49 80.2093C128.946 80.2093 124.453 80.1347 124.453 80.0477C124.453 79.9607 128.946 79.8799 134.49 79.8799C140.034 79.8799 144.533 79.9545 144.533 80.0477Z" fill="#263238"/>
<path d="M104.826 108.45C103.911 108.665 102.958 108.665 102.042 108.45C102.958 108.234 103.911 108.234 104.826 108.45Z" fill="#263238"/>
<path d="M111.371 115.186C111.371 115.274 108.015 115.348 103.869 115.348C99.724 115.348 96.3742 115.274 96.3742 115.186C96.3742 115.099 99.7302 115.025 103.869 115.025C108.008 115.025 111.371 115.099 111.371 115.186Z" fill="#263238"/>
<path d="M134.987 108.45C133.572 108.613 132.147 108.667 130.724 108.611C129.301 108.667 127.875 108.613 126.46 108.45C127.876 108.29 129.301 108.236 130.724 108.288C132.147 108.236 133.572 108.29 134.987 108.45Z" fill="#263238"/>
<path d="M137.511 114.826C137.511 114.913 134.074 114.988 129.835 114.988C125.597 114.988 122.154 114.913 122.154 114.826C122.154 114.739 125.59 114.665 129.835 114.665C134.08 114.665 137.511 114.739 137.511 114.826Z" fill="#263238"/>
<path d="M162.83 108.543C160.918 108.703 158.999 108.757 157.081 108.705C155.163 108.757 153.244 108.703 151.332 108.543C153.244 108.379 155.163 108.325 157.081 108.381C158.999 108.325 160.918 108.379 162.83 108.543Z" fill="#263238"/>
<path d="M164.98 115.093C164.98 115.187 161.668 115.255 157.578 115.255C153.489 115.255 150.17 115.187 150.17 115.093C150.17 115 153.483 114.932 157.578 114.932C161.674 114.932 164.98 115.006 164.98 115.093Z" fill="#263238"/>
<path d="M143.508 121.47H101.383C100.508 121.47 99.7986 122.18 99.7986 123.055V132.905C99.7986 133.781 100.508 134.49 101.383 134.49H143.508C144.383 134.49 145.093 133.781 145.093 132.905V123.055C145.093 122.18 144.383 121.47 143.508 121.47Z" fill="#FE5E32"/>
<path d="M136.529 128.201C136.529 128.288 130.699 128.362 123.508 128.362C116.318 128.362 110.457 128.288 110.457 128.201C110.457 128.114 116.287 128.039 123.508 128.039C130.73 128.039 136.529 128.107 136.529 128.201Z" fill="white"/>
<path d="M160.307 121.228H150.313C149.5 121.228 148.84 121.887 148.84 122.7V133.098C148.84 133.911 149.5 134.571 150.313 134.571H160.307C161.12 134.571 161.78 133.911 161.78 133.098V122.7C161.78 121.887 161.12 121.228 160.307 121.228Z" fill="#EBEBEB"/>
<path d="M153.912 127.219H156.702L155.428 129.176L153.912 127.219Z" fill="#263238"/>
<path d="M145.093 144.173C145.093 144.266 137.89 144.334 129.009 144.334C120.127 144.334 112.924 144.266 112.924 144.173C112.924 144.08 120.127 144.011 129.009 144.011C137.89 144.011 145.093 144.086 145.093 144.173Z" fill="#E0E0E0"/>
<path d="M154.452 150.232C154.452 150.319 143.887 150.394 130.836 150.394C117.784 150.394 107.219 150.319 107.219 150.232C107.219 150.145 117.784 150.071 130.836 150.071C143.887 150.071 154.452 150.145 154.452 150.232Z" fill="#E0E0E0"/>
<path d="M181.599 160.736C181.599 160.829 158.946 160.903 130.997 160.903C103.049 160.903 80.3958 160.829 80.3958 160.736C80.3958 160.642 103.049 160.574 130.997 160.574C158.946 160.574 181.599 160.649 181.599 160.736Z" fill="#263238"/>
<path d="M132.004 172.525C131.844 170.62 131.79 168.707 131.843 166.795C131.79 164.886 131.844 162.975 132.004 161.071C132.168 162.975 132.222 164.886 132.166 166.795C132.222 168.707 132.168 170.62 132.004 172.525Z" fill="#263238"/>
<path d="M125.721 88.5312L122.812 95.206H121.569L118.655 88.5312H119.997L122.216 93.6772L124.459 88.5312H125.721Z" fill="#FE5E32"/>
<path d="M130.699 93.043H126.703C126.777 93.4176 126.986 93.7518 127.291 93.9813C127.596 94.2107 127.976 94.3192 128.356 94.286C128.612 94.2964 128.867 94.2525 129.105 94.1572C129.343 94.0618 129.558 93.9172 129.736 93.7329L130.357 94.4662C130.097 94.7468 129.779 94.9663 129.424 95.1092C129.07 95.2521 128.688 95.3148 128.306 95.2928C126.603 95.2928 125.497 94.199 125.497 92.6826C125.485 92.3327 125.545 91.984 125.675 91.6587C125.804 91.3335 126 91.0387 126.249 90.7932C126.499 90.5477 126.797 90.3568 127.124 90.2327C127.452 90.1086 127.801 90.054 128.151 90.0723C128.497 90.0596 128.842 90.1194 129.164 90.2477C129.485 90.3761 129.777 90.5702 130.019 90.8178C130.261 91.0653 130.449 91.3607 130.57 91.685C130.692 92.0093 130.744 92.3555 130.724 92.7012C130.718 92.782 130.705 92.9249 130.699 93.043ZM126.697 92.2475H129.58C129.546 91.8959 129.377 91.571 129.11 91.3398C128.843 91.1085 128.498 90.9885 128.145 91.0045C127.791 90.9913 127.446 91.1119 127.177 91.3423C126.909 91.5728 126.737 91.896 126.697 92.2475Z" fill="#FE5E32"/>
<path d="M134.807 90.0723V91.2034C134.717 91.1849 134.626 91.1745 134.534 91.1723C134.327 91.1564 134.12 91.187 133.927 91.2618C133.734 91.3366 133.56 91.4537 133.418 91.6046C133.276 91.7554 133.17 91.9361 133.107 92.1334C133.044 92.3307 133.026 92.5396 133.054 92.7447V95.2307H131.88V90.1407H133.017V90.8802C133.221 90.6035 133.493 90.3839 133.807 90.2425C134.12 90.101 134.465 90.0424 134.807 90.0723Z" fill="#FE5E32"/>
<path d="M135.659 88.5622C135.659 88.4643 135.68 88.3675 135.719 88.2778C135.758 88.1881 135.816 88.1073 135.887 88.0405C135.959 87.9736 136.043 87.922 136.135 87.8888C136.227 87.8556 136.325 87.8415 136.423 87.8475C136.518 87.8398 136.614 87.8517 136.705 87.8824C136.795 87.9131 136.878 87.9619 136.949 88.0259C137.02 88.0899 137.077 88.1677 137.117 88.2546C137.157 88.3415 137.179 88.4356 137.181 88.5311C137.164 88.7211 137.076 88.8979 136.935 89.0266C136.795 89.1553 136.611 89.2267 136.42 89.2267C136.229 89.2267 136.045 89.1553 135.904 89.0266C135.763 88.8979 135.676 88.7211 135.659 88.5311V88.5622ZM135.82 90.1159H137.013V95.2059H135.82V90.1159Z" fill="#FE5E32"/>
<path d="M140.581 88.065C140.961 88.0482 141.338 88.1456 141.662 88.3447L141.326 89.2396C141.133 89.1043 140.904 89.0306 140.668 89.0283C140.17 89.0283 139.916 89.3017 139.916 89.8487V90.1532H141.32V91.1041H139.959V95.2059H138.716V91.1041H137.883V90.1532H138.716V89.83C138.696 89.5845 138.732 89.3376 138.82 89.1075C138.908 88.8775 139.047 88.6701 139.226 88.5007C139.404 88.3314 139.619 88.2043 139.854 88.1289C140.088 88.0535 140.337 88.0316 140.581 88.065ZM142.719 88.5622C142.719 88.4643 142.74 88.3675 142.779 88.2778C142.818 88.1881 142.876 88.1073 142.947 88.0405C143.019 87.9736 143.103 87.922 143.195 87.8888C143.287 87.8556 143.385 87.8415 143.483 87.8475C143.578 87.8398 143.674 87.8517 143.765 87.8824C143.855 87.9131 143.938 87.9619 144.009 88.0259C144.08 88.0899 144.138 88.1677 144.177 88.2546C144.217 88.3415 144.239 88.4356 144.241 88.5311C144.224 88.7211 144.136 88.8979 143.996 89.0266C143.855 89.1553 143.671 89.2267 143.48 89.2267C143.289 89.2267 143.105 89.1553 142.964 89.0266C142.823 88.8979 142.736 88.7211 142.719 88.5311V88.5622ZM142.88 90.1159H144.073V95.2059H142.88V90.1159Z" fill="#FE5E32"/>
<path d="M150.375 93.043H146.385C146.458 93.4172 146.666 93.7512 146.97 93.9808C147.274 94.2103 147.653 94.3191 148.032 94.286C148.289 94.2942 148.545 94.2493 148.783 94.1542C149.022 94.059 149.238 93.9156 149.418 93.7329L150.04 94.4663C149.781 94.7475 149.462 94.9675 149.107 95.1105C148.753 95.2534 148.371 95.3157 147.989 95.2928C146.286 95.2928 145.18 94.199 145.18 92.6826C145.17 92.3362 145.232 91.9915 145.361 91.6698C145.49 91.3482 145.684 91.0566 145.93 90.813C146.177 90.5694 146.471 90.3791 146.794 90.2538C147.117 90.1285 147.462 90.071 147.809 90.0848C148.155 90.072 148.5 90.1318 148.821 90.2602C149.143 90.3885 149.434 90.5827 149.676 90.8302C149.919 91.0777 150.107 91.3731 150.228 91.6974C150.349 92.0218 150.402 92.3679 150.382 92.7137C150.394 92.782 150.388 92.925 150.375 93.043ZM146.373 92.2475H149.282C149.245 91.8954 149.076 91.5704 148.808 91.3393C148.54 91.1082 148.193 90.9884 147.84 91.0046C147.483 90.9879 147.134 91.1069 146.862 91.3375C146.59 91.5682 146.415 91.8933 146.373 92.2475Z" fill="#FE5E32"/>
<path d="M156.528 88.1333V95.2058H155.385V94.5471C155.176 94.7863 154.917 94.9753 154.625 95.1002C154.333 95.225 154.017 95.2824 153.7 95.268C153.01 95.268 152.347 94.9936 151.859 94.5053C151.371 94.0169 151.096 93.3546 151.096 92.6639C151.096 91.9733 151.371 91.311 151.859 90.8226C152.347 90.3343 153.01 90.0599 153.7 90.0599C154.006 90.0462 154.312 90.1004 154.594 90.2186C154.877 90.3368 155.13 90.5161 155.335 90.7436V88.1333H156.528ZM155.353 92.6577C155.339 92.3614 155.238 92.0759 155.062 91.8365C154.887 91.5972 154.646 91.4144 154.368 91.311C154.089 91.2076 153.787 91.188 153.498 91.2547C153.209 91.3213 152.946 91.4713 152.741 91.6861C152.536 91.9008 152.399 92.1709 152.347 92.4628C152.294 92.7548 152.328 93.0558 152.445 93.3285C152.561 93.6013 152.755 93.8339 153.003 93.9975C153.25 94.161 153.54 94.2484 153.837 94.2487C154.044 94.2527 154.249 94.2136 154.44 94.134C154.63 94.0545 154.802 93.9361 154.945 93.7865C155.088 93.6369 155.197 93.4594 155.268 93.265C155.338 93.0707 155.367 92.8639 155.353 92.6577Z" fill="#FE5E32"/>
<path d="M109.264 96.8777C112.15 96.8777 114.491 94.5377 114.491 91.651C114.491 88.7644 112.15 86.4243 109.264 86.4243C106.377 86.4243 104.037 88.7644 104.037 91.651C104.037 94.5377 106.377 96.8777 109.264 96.8777Z" fill="#FE5E32"/>
<path d="M106.902 91.7504L107.573 91.0792L108.872 92.2289L111.414 89.7803L112.036 90.4515L108.773 93.5216L106.902 91.7504Z" fill="white"/>
<path d="M131.731 220.641H90.7124C87.7784 220.631 84.9682 219.457 82.8988 217.377C80.8294 215.297 79.6698 212.481 79.6748 209.547V172.525H131.762L131.731 220.641Z" fill="#EBEBEB"/>
<path d="M169.561 220.74L131.258 220.641V172.525H181.089V209.236C181.026 212.272 179.79 215.165 177.641 217.309C175.492 219.453 172.596 220.683 169.561 220.74Z" fill="#455A64"/>
<path d="M181.599 172.525C181.599 172.612 158.946 172.687 131.004 172.687C103.061 172.687 80.4019 172.612 80.4019 172.525C80.4019 172.438 103.049 172.364 131.004 172.364C158.958 172.364 181.599 172.438 181.599 172.525Z" fill="#263238"/>
<path d="M130.245 200.697C130.245 200.697 130.189 200.697 130.102 200.61L129.711 200.324L128.232 199.218L122.825 195.091C121.687 194.228 120.432 193.227 119.096 192.251C118.739 192.044 118.331 191.942 117.919 191.956C117.507 191.971 117.107 192.101 116.765 192.332C116.421 192.618 116.097 192.927 115.796 193.258L114.808 194.259L106.107 203.047L105.572 203.587L105.473 203.687L105.361 203.606L100.339 199.877L97.9528 198.093C97.6269 197.784 97.2162 197.58 96.7734 197.505C96.3305 197.431 95.8756 197.491 95.4668 197.677C95.0833 197.899 94.7355 198.178 94.4351 198.503L93.4532 199.417L91.5887 201.157L88.2327 204.265L83.3664 208.752L82.0302 209.957L81.6822 210.268C81.6035 210.339 81.56 210.37 81.5517 210.361C81.5817 210.318 81.6172 210.278 81.6573 210.243L81.9867 209.914L83.2794 208.671L88.0773 204.109L91.4085 200.965L93.273 199.218L94.2487 198.298L94.7459 197.832C94.9317 197.664 95.1411 197.524 95.3674 197.416C95.8208 197.197 96.3309 197.123 96.8279 197.205C97.0795 197.243 97.323 197.323 97.5488 197.441C97.7694 197.558 97.9776 197.698 98.1703 197.857L100.563 199.628L105.591 203.357H105.38L105.914 202.81L114.615 194.041L115.609 193.047C115.923 192.703 116.261 192.383 116.622 192.09C117.01 191.833 117.461 191.689 117.926 191.676C118.391 191.663 118.85 191.78 119.251 192.015C120.631 193.041 121.837 194.023 122.98 194.905L128.325 199.113L129.773 200.268L130.14 200.579C130.18 200.614 130.215 200.654 130.245 200.697Z" fill="#263238"/>
<path d="M109.916 184.539C109.879 184.539 109.916 184.141 109.711 183.451C109.444 182.486 108.862 181.637 108.058 181.04C107.509 180.629 106.87 180.354 106.194 180.238C105.425 180.101 104.634 180.17 103.9 180.437C103.088 180.734 102.383 181.266 101.874 181.966C101.326 182.712 101.03 183.615 101.03 184.542C101.03 185.468 101.326 186.371 101.874 187.118C102.362 187.779 103.025 188.292 103.788 188.597C104.551 188.902 105.384 188.988 106.194 188.845C106.871 188.729 107.51 188.452 108.058 188.038C108.862 187.44 109.444 186.591 109.711 185.626C109.898 184.943 109.879 184.539 109.916 184.539C109.926 184.636 109.926 184.734 109.916 184.831C109.917 185.109 109.886 185.386 109.823 185.657C109.592 186.675 109.014 187.58 108.189 188.218C107.62 188.664 106.953 188.968 106.243 189.106C105.381 189.274 104.489 189.193 103.671 188.874C102.853 188.555 102.141 188.011 101.62 187.304C101.027 186.505 100.707 185.537 100.707 184.542C100.707 183.547 101.027 182.578 101.62 181.779C102.167 181.034 102.924 180.469 103.795 180.157C104.58 179.879 105.425 179.815 106.243 179.971C106.952 180.111 107.618 180.416 108.189 180.859C109.013 181.498 109.591 182.403 109.823 183.42C109.886 183.693 109.917 183.972 109.916 184.253C109.926 184.348 109.926 184.443 109.916 184.539Z" fill="#263238"/>
<path d="M179.548 199.156C179.548 199.156 179.498 199.156 179.411 199.069L179.038 198.789L177.609 197.677L172.395 193.544C171.301 192.68 170.095 191.679 168.809 190.704C168.465 190.497 168.067 190.398 167.666 190.419C167.265 190.44 166.879 190.58 166.559 190.822C166.232 191.111 165.923 191.421 165.633 191.748L164.688 192.748L156.366 201.505L155.844 202.046L155.745 202.151L155.627 202.064L150.786 198.336L148.486 196.552C148.176 196.241 147.776 196.036 147.343 195.967C146.91 195.898 146.466 195.968 146.075 196.167C145.71 196.4 145.378 196.68 145.086 196.999L144.148 197.913L142.352 199.647L139.126 202.754L134.459 207.229L133.179 208.435L132.837 208.739C132.762 208.808 132.719 208.845 132.713 208.839C132.743 208.795 132.778 208.755 132.818 208.721C132.899 208.627 133.005 208.522 133.129 208.391L134.372 207.148L138.971 202.599L142.165 199.46C142.743 198.901 143.334 198.317 143.949 197.714L144.881 196.8L145.36 196.334C145.53 196.168 145.722 196.025 145.932 195.912C146.37 195.68 146.871 195.595 147.361 195.669C147.609 195.705 147.848 195.783 148.07 195.899C148.289 196.019 148.497 196.158 148.691 196.316L150.991 198.093L155.838 201.822H155.621L156.143 201.275L164.483 192.537L165.434 191.543C165.737 191.204 166.061 190.884 166.404 190.586C166.771 190.315 167.21 190.159 167.666 190.138C168.122 190.117 168.573 190.232 168.964 190.468C170.3 191.493 171.45 192.475 172.556 193.357L177.702 197.571L179.088 198.733L179.442 199.038L179.548 199.156Z" fill="#263238"/>
<path d="M158.417 183.153C158.386 183.153 158.417 182.755 158.219 182.071C157.954 181.105 157.372 180.255 156.565 179.66C156.101 179.313 155.572 179.061 155.009 178.919C154.447 178.778 153.862 178.749 153.288 178.834C152.714 178.92 152.163 179.118 151.666 179.418C151.17 179.717 150.737 180.112 150.394 180.58C149.845 181.327 149.549 182.229 149.549 183.156C149.549 184.083 149.845 184.985 150.394 185.732C150.902 186.431 151.607 186.961 152.42 187.255C153.107 187.508 153.848 187.585 154.572 187.476C155.297 187.367 155.983 187.077 156.565 186.633C157.371 186.037 157.953 185.188 158.219 184.222C158.304 183.863 158.37 183.5 158.417 183.134C158.434 183.231 158.434 183.329 158.417 183.426C158.418 183.704 158.387 183.982 158.324 184.253C158.11 185.272 157.55 186.185 156.739 186.838C156.168 187.28 155.502 187.582 154.794 187.721C153.976 187.883 153.129 187.818 152.345 187.534C151.475 187.225 150.718 186.662 150.17 185.918C149.577 185.119 149.257 184.151 149.257 183.156C149.257 182.161 149.577 181.192 150.17 180.393C150.692 179.687 151.403 179.142 152.222 178.824C153.04 178.505 153.932 178.424 154.794 178.591C155.502 178.73 156.168 179.032 156.739 179.474C157.565 180.114 158.143 181.021 158.374 182.04C158.436 182.311 158.468 182.589 158.467 182.867C158.468 182.964 158.451 183.061 158.417 183.153Z" fill="#263238"/>
<path d="M132.023 74.8396C139.972 74.8396 146.416 68.3953 146.416 60.4459C146.416 52.4965 139.972 46.0522 132.023 46.0522C124.073 46.0522 117.629 52.4965 117.629 60.4459C117.629 68.3953 124.073 74.8396 132.023 74.8396Z" fill="#F5F5F5"/>
<path d="M141.326 71.3654C141.081 69.0822 139.986 66.9747 138.259 65.4609C136.532 63.9471 134.3 63.1376 132.004 63.1928C126.895 63.1928 123.397 67.0585 122.682 71.3965C122.682 71.3965 125.839 74.8893 132.004 74.8395C138.169 74.7898 141.326 71.3654 141.326 71.3654Z" fill="#E0E0E0"/>
<path d="M137.879 59.0394C138.378 55.954 136.281 53.0485 133.196 52.5498C130.11 52.0512 127.205 54.1482 126.706 57.2336C126.207 60.3191 128.304 63.2246 131.39 63.7232C134.475 64.2219 137.381 62.1249 137.879 59.0394Z" fill="#E0E0E0"/>
<path d="M141.258 70.8746C141.082 69.9539 140.787 69.0598 140.382 68.2146C139.858 67.2694 139.168 66.4271 138.343 65.7287C137.261 64.8145 136.014 64.1143 134.67 63.6653L134.372 63.5721L134.645 63.4292C135.594 62.9136 136.373 62.1344 136.889 61.1856C137.338 60.3495 137.562 59.4114 137.54 58.4627C137.518 57.5141 137.25 56.5874 136.763 55.7731C136.276 54.9587 135.586 54.2846 134.761 53.8165C133.935 53.3485 133.003 53.1024 132.054 53.1024C131.105 53.1024 130.172 53.3485 129.347 53.8165C128.521 54.2846 127.832 54.9587 127.344 55.7731C126.857 56.5874 126.59 57.5141 126.568 58.4627C126.546 59.4114 126.77 60.3495 127.219 61.1856C127.48 61.6704 127.811 62.1142 128.201 62.5032C128.579 62.8669 128.995 63.1879 129.444 63.4603L129.692 63.6156L129.406 63.6964C128.031 64.0587 126.766 64.757 125.727 65.7287C124.938 66.4758 124.286 67.3549 123.801 68.3265C123.487 68.9496 123.233 69.6009 123.042 70.2718C122.974 70.5017 122.93 70.682 122.899 70.8C122.891 70.8621 122.874 70.9228 122.85 70.9803C122.839 70.9186 122.839 70.8555 122.85 70.7938C122.85 70.6695 122.899 70.4831 122.955 70.2531C123.118 69.5672 123.354 68.9005 123.658 68.2644C124.129 67.2597 124.777 66.3481 125.572 65.5733C126.618 64.5642 127.9 63.8316 129.301 63.4416L129.263 63.6778C128.794 63.4008 128.357 63.0737 127.958 62.702C127.545 62.2957 127.193 61.8308 126.914 61.3223C126.299 60.1756 126.088 58.8556 126.313 57.5741C126.539 56.2927 127.188 55.1241 128.157 54.256C129.219 53.2996 130.597 52.7703 132.026 52.7703C133.455 52.7703 134.833 53.2996 135.895 54.256C136.588 54.879 137.12 55.6604 137.446 56.5335C137.772 57.4067 137.882 58.3457 137.767 59.2706C137.651 60.1955 137.314 61.0787 136.784 61.845C136.253 62.6114 135.545 63.238 134.72 63.6716V63.4292C136.092 63.8982 137.358 64.6308 138.449 65.5857C139.284 66.3138 139.973 67.1931 140.481 68.1774C140.659 68.5418 140.806 68.9201 140.923 69.3085C141.019 69.5898 141.092 69.8788 141.14 70.1723C141.171 70.3898 141.196 70.5701 141.215 70.7192C141.233 70.8684 141.271 70.8746 141.258 70.8746Z" fill="#263238"/>
<path d="M146.416 60.4459C146.397 60.3686 146.387 60.2894 146.385 60.2097C146.385 60.0419 146.385 59.8182 146.336 59.5323L146.305 59.0289C146.305 58.8424 146.242 58.6435 146.205 58.4074C146.141 57.9054 146.039 57.4089 145.901 56.922C145.563 55.5809 145.025 54.2985 144.303 53.1185C142.596 50.2695 139.951 48.1039 136.82 46.9936C133.69 45.8833 130.271 45.8976 127.15 47.0341C126.511 47.2646 125.888 47.5387 125.286 47.8545C124.678 48.1876 124.094 48.5635 123.539 48.9794C122.971 49.401 122.431 49.8598 121.924 50.3529C121.422 50.8725 120.954 51.4247 120.525 52.006C119.642 53.1959 118.956 54.52 118.493 55.9276C117.515 58.8455 117.515 62.0027 118.493 64.9206C118.956 66.3301 119.642 67.6563 120.525 68.8484C120.956 69.4285 121.423 69.9806 121.924 70.5015C122.431 70.9946 122.971 71.4534 123.539 71.875C124.096 72.2888 124.679 72.6646 125.286 72.9999C128.145 74.5074 131.426 75.017 134.608 74.448C136.606 74.0805 138.504 73.294 140.176 72.1403C141.848 70.9866 143.257 69.4919 144.31 67.7546C145.032 66.5729 145.57 65.2883 145.907 63.9448C146.045 63.4601 146.147 62.9656 146.211 62.4657C146.249 62.2482 146.286 62.0493 146.311 61.8442L146.342 61.3408C146.342 61.0549 146.379 60.8312 146.392 60.6572C146.393 60.5796 146.403 60.5024 146.423 60.4272C146.431 60.5057 146.431 60.5849 146.423 60.6634C146.423 60.8312 146.423 61.0611 146.423 61.347C146.423 61.5024 146.423 61.6702 146.423 61.8504C146.423 62.0307 146.367 62.242 146.342 62.4719C146.286 62.9775 146.193 63.4782 146.062 63.9697C145.74 65.3323 145.211 66.6379 144.496 67.8416C143.449 69.6144 142.037 71.1445 140.354 72.3306C138.67 73.5167 136.754 74.3316 134.732 74.7214C132.175 75.2002 129.535 74.9856 127.088 74.1C126.436 73.8652 125.801 73.587 125.186 73.2672C124.564 72.928 123.966 72.5459 123.397 72.1236C122.814 71.6935 122.262 71.2242 121.743 70.7191C121.229 70.1908 120.752 69.6281 120.314 69.0348C119.406 67.8177 118.701 66.462 118.226 65.02C117.749 63.5347 117.496 61.9869 117.474 60.4272C117.494 58.8648 117.749 57.3144 118.232 55.8282C118.704 54.3879 119.407 53.034 120.314 51.8196C120.752 51.2244 121.229 50.6596 121.743 50.1292C122.265 49.6292 122.817 49.1622 123.397 48.7308C123.966 48.3085 124.564 47.9264 125.186 47.5873C125.801 47.2674 126.436 46.9892 127.088 46.7545C129.533 45.869 132.17 45.6545 134.726 46.133C136.749 46.5216 138.667 47.336 140.351 48.5222C142.035 49.7083 143.448 51.2391 144.496 53.0129C145.211 54.2144 145.739 55.5179 146.062 56.8785C146.193 57.3721 146.286 57.8749 146.342 58.3825C146.342 58.6 146.404 58.8051 146.423 59.004C146.441 59.2029 146.423 59.3583 146.423 59.5136C146.423 59.7995 146.423 60.0295 146.423 60.1973C146.43 60.2801 146.428 60.3635 146.416 60.4459Z" fill="#263238"/>
<path d="M72.4904 125.826C64.9331 129.742 59.1346 136.485 54.9707 143.906C50.8067 151.326 48.1343 159.474 45.4557 167.559L43.1251 209.261C51.9192 194.302 58.9793 176.714 60.8872 159.461L55.0328 158.939C58.9606 158.318 62.2545 155.496 64.3551 152.103C66.4558 148.71 67.5309 144.838 68.5813 141.016L61.4404 142.072C67.0734 138.277 71.0301 132.46 72.4904 125.826Z" fill="#455A64"/>
<path d="M72.4904 125.826C64.9331 129.742 59.1346 136.485 54.9707 143.906C50.8067 151.326 48.1343 159.474 45.4557 167.559L43.1251 209.261C51.9192 194.302 58.9793 176.714 60.8872 159.461L55.0328 158.939C58.9606 158.318 62.2545 155.496 64.3551 152.103C66.4558 148.71 67.5309 144.838 68.5813 141.016L61.4404 142.072C67.0734 138.277 71.0301 132.46 72.4904 125.826Z" fill="#455A64"/>
<path d="M41.82 219.037C41.82 219.037 22.7341 196.185 22.9516 174.371H30.6643C30.6643 174.371 22.2866 168.865 22.9516 165.782C23.6166 162.699 23.8341 151.015 23.8341 151.015L30.888 152.78C30.888 152.78 25.5991 150.139 24.9341 145.944C24.2691 141.749 26.4754 122.39 26.4754 122.39C26.4754 122.39 35.0706 131.42 37.7182 140.674C40.3657 149.928 47.3015 160.723 45.263 188.926C43.2245 217.129 41.82 219.037 41.82 219.037Z" fill="#455A64"/>
<path d="M51.5027 221.206C51.5027 221.206 72.1859 207.428 76.7787 189.84L70.5638 188.156C70.5638 188.156 78.5064 185.558 78.6431 182.935C78.7799 180.312 81.1291 170.872 81.1291 170.872L75.0758 170.748C75.0758 170.748 79.9048 169.778 81.3528 166.559C82.8009 163.34 85.3241 147.249 85.3241 147.249C85.3241 147.249 76.4369 152.638 72.2729 159.499C68.1089 166.36 60.1787 173.52 55.6481 196.639C51.1174 219.758 51.5027 221.206 51.5027 221.206Z" fill="#455A64"/>
<path d="M31.6959 142.277C31.6959 142.277 31.6959 142.358 31.758 142.514C31.8202 142.669 31.8575 142.924 31.9258 143.216C32.0688 143.837 32.2677 144.77 32.5473 145.932C32.827 147.094 33.1191 148.554 33.4485 150.232C33.7779 151.91 34.1818 153.825 34.5672 155.944C35.3875 160.182 36.2452 165.266 37.1339 170.86C38.0226 176.453 38.8554 182.711 39.6199 189.249C40.3843 195.787 40.9499 202.04 41.3973 207.726C41.8448 213.413 42.1369 218.546 42.3047 222.853C42.4166 225.01 42.4663 226.961 42.5222 228.677C42.5782 230.392 42.6092 231.865 42.6217 233.071C42.6341 234.276 42.6217 235.196 42.6527 235.849V236.57C42.6527 236.731 42.6527 236.818 42.6527 236.818C42.6423 236.736 42.6423 236.652 42.6527 236.57V235.849C42.6527 235.196 42.5968 234.264 42.5595 233.071C42.5222 231.877 42.4787 230.392 42.4041 228.683C42.3296 226.974 42.2612 225.022 42.1431 222.866C41.938 218.559 41.5962 213.438 41.1612 207.751C40.7261 202.065 40.1046 195.825 39.3588 189.287C38.6131 182.749 37.743 176.54 36.8729 170.903C36.0028 165.266 35.1638 160.201 34.3869 155.987C34.014 153.862 33.6349 151.954 33.318 150.27C33.001 148.585 32.6965 147.162 32.4665 145.957C32.2366 144.751 32.0501 143.875 31.9258 143.234C31.8699 142.93 31.8202 142.7 31.7891 142.52C31.7505 142.442 31.7193 142.361 31.6959 142.277Z" fill="#263238"/>
<path d="M39.1724 233.015C39.1724 233.015 21.7024 213.208 16.283 201.225L20.3786 199.454C17.4079 199.945 14.3688 198.671 12.0631 196.732C9.75737 194.793 8.07313 192.245 6.41376 189.734L11.8083 188.821C6.84358 187.411 2.61389 184.141 0 179.691C6.36404 180.741 12.1252 184.234 16.8672 188.609C20.7142 192.146 23.9646 196.254 27.0907 200.455C28.6199 202.498 29.9498 204.683 31.062 206.98C34.0203 213.065 39.1848 225.749 39.1724 233.015Z" fill="#455A64"/>
<path d="M77.0521 158.79C77.0342 158.86 77.007 158.927 76.9713 158.989L76.7041 159.567C76.4493 160.089 76.0826 160.81 75.6351 161.761C75.1876 162.712 74.5972 163.88 73.9509 165.241C73.3045 166.602 72.5525 168.144 71.7632 169.865C70.1474 173.302 68.2953 177.416 66.3004 182.015C64.3054 186.614 62.2234 191.723 60.129 197.117C58.0346 202.512 56.1763 207.683 54.5356 212.437C52.8949 217.192 51.5151 221.48 50.3965 225.103C49.8247 226.912 49.3462 228.559 48.9049 230C48.4636 231.442 48.1032 232.685 47.8111 233.729C47.519 234.773 47.289 235.519 47.1212 236.072L46.9348 236.694C46.9172 236.765 46.8922 236.833 46.8602 236.899C46.8685 236.825 46.883 236.753 46.9037 236.681C46.941 236.526 46.9969 236.327 47.0591 236.06L47.6806 233.698C47.954 232.679 48.3021 231.424 48.7185 229.969C49.1349 228.515 49.6072 226.862 50.1665 225.06C51.2541 221.424 52.6525 217.123 54.2373 212.369C55.8221 207.614 57.73 202.425 59.8307 197.024C61.9313 191.624 64.0381 186.527 66.0456 181.922C68.053 177.317 69.9361 173.221 71.5706 169.797C72.3785 168.075 73.1429 166.54 73.8079 165.185C74.4729 163.831 75.0509 162.699 75.5419 161.73L76.6606 159.561L76.9589 159.002C76.9828 158.928 77.014 158.857 77.0521 158.79Z" fill="#263238"/>
<path d="M40.6578 241.523C40.617 241.404 40.5899 241.281 40.577 241.156L40.4092 240.106C40.3408 239.646 40.2601 239.086 40.1358 238.44C40.0115 237.794 39.912 237.054 39.7318 236.246C39.421 234.624 38.9736 232.71 38.4018 230.597C37.83 228.484 37.0905 226.209 36.2017 223.848C35.313 221.486 34.3373 219.292 33.3926 217.322C32.4479 215.352 31.5281 213.63 30.6581 212.207C30.2541 211.48 29.8501 210.852 29.5083 210.293C29.1665 209.734 28.8868 209.249 28.6134 208.863L28.0416 207.962C27.9719 207.86 27.9116 207.752 27.8614 207.639C27.9527 207.723 28.0322 207.819 28.0975 207.925L28.719 208.795C28.9863 209.168 29.3094 209.64 29.6637 210.193C30.0179 210.747 30.4343 211.368 30.8507 212.089C31.7208 213.5 32.6717 215.234 33.6598 217.191C34.648 219.149 35.6051 221.368 36.5063 223.729C37.4074 226.091 38.1159 228.403 38.6877 230.522C39.2595 232.642 39.6759 234.574 39.9307 236.203C40.0923 237.017 40.1855 237.763 40.2849 238.415C40.3844 239.068 40.4589 239.627 40.5024 240.087C40.5459 240.547 40.5832 240.87 40.6081 241.15C40.6412 241.271 40.658 241.397 40.6578 241.523Z" fill="#263238"/>
<path d="M63.7088 236.862H25.4748V244.661H63.7088V236.862Z" fill="#FE5E32"/>
<path d="M29.1168 244.661L33.2559 270.894H56.3566L60.2098 244.661H29.1168Z" fill="#FE5E32"/>
<path d="M61.3658 244.661C61.3658 244.748 54.1316 244.823 45.2071 244.823C36.2825 244.823 29.0484 244.748 29.0484 244.661C29.0484 244.574 36.2825 244.494 45.2071 244.494C54.1316 244.494 61.3658 244.568 61.3658 244.661Z" fill="#263238"/>
<g opacity="0.3">
<path opacity="0.3" d="M72.4904 125.826C64.9331 129.742 59.1346 136.485 54.9707 143.906C50.8067 151.326 48.1343 159.474 45.4557 167.559L43.1251 209.261C51.9192 194.302 58.9793 176.714 60.8872 159.461L55.0328 158.939C58.9606 158.318 62.2545 155.496 64.3551 152.103C66.4558 148.71 67.5309 144.838 68.5813 141.016L61.4404 142.072C67.0734 138.277 71.0301 132.46 72.4904 125.826Z" fill="black"/>
</g>
<path d="M250.503 159.486C250.503 159.486 256.842 170.008 257.787 180.027C258.732 190.045 252.038 271 252.038 271H173.172C173.172 271 194.302 171.034 201.213 164.62L201.685 157.97L250.503 159.486Z" fill="#263238"/>
<path d="M253.872 167.51C253.889 167.98 253.879 168.451 253.841 168.921C253.75 170.27 253.497 171.603 253.089 172.892C252.45 174.943 251.453 176.864 250.143 178.566C249.327 179.632 248.388 180.597 247.346 181.444C246.17 182.368 244.923 183.2 243.617 183.929C242.256 184.725 240.802 185.496 239.348 186.415C237.824 187.316 236.436 188.429 235.227 189.722C233.992 191.157 233.039 192.812 232.418 194.6C231.797 196.518 231.367 198.491 231.132 200.492C230.852 202.543 230.672 204.662 230.392 206.825C230.14 209.041 229.64 211.222 228.9 213.326C228.098 215.514 226.788 217.48 225.078 219.062C223.289 220.638 221.263 221.924 219.075 222.872C214.724 224.867 210.15 226.141 206.291 228.465C204.398 229.586 202.741 231.064 201.412 232.816C200.197 234.545 199.264 236.456 198.646 238.478C197.403 242.418 196.844 246.352 195.812 249.913C195.676 250.354 195.539 250.795 195.408 251.23C195.278 251.666 195.104 252.082 194.955 252.505C194.636 253.324 194.275 254.127 193.873 254.91C193.507 255.687 193.041 256.395 192.63 257.104C192.4 257.445 192.164 257.781 191.934 258.11L191.592 258.601L191.22 259.067C189.468 261.303 187.37 263.244 185.005 264.816C183.223 266.006 181.303 266.975 179.287 267.7C178.013 268.147 176.706 268.494 175.378 268.738L174.34 268.893L173.979 268.937L174.334 268.862L175.365 268.676C176.683 268.407 177.98 268.042 179.243 267.582C183.907 265.848 187.995 262.85 191.052 258.924L191.418 258.465L191.76 257.974L192.444 256.973C192.854 256.271 193.314 255.568 193.687 254.792C194.083 254.018 194.438 253.223 194.75 252.411C194.899 251.995 195.042 251.572 195.191 251.168C195.34 250.764 195.458 250.298 195.589 249.857C196.608 246.321 197.13 242.399 198.398 238.403C199.023 236.351 199.969 234.411 201.201 232.654C202.551 230.858 204.24 229.344 206.173 228.198C210.082 225.83 214.643 224.556 218.981 222.567C221.139 221.643 223.138 220.385 224.904 218.838C226.571 217.294 227.848 215.377 228.633 213.245C229.356 211.146 229.84 208.971 230.075 206.763C230.355 204.613 230.541 202.493 230.827 200.436C231.07 198.416 231.507 196.424 232.132 194.489C232.773 192.666 233.749 190.98 235.01 189.517C236.243 188.211 237.655 187.088 239.205 186.179C240.671 185.284 242.132 184.514 243.487 183.737C244.791 183.005 246.038 182.174 247.216 181.251C248.247 180.42 249.179 179.474 249.994 178.429C251.299 176.751 252.302 174.858 252.958 172.836C253.382 171.559 253.655 170.236 253.772 168.896C253.822 168.436 253.822 168.088 253.841 167.845C253.859 167.603 253.872 167.51 253.872 167.51Z" fill="#455A64"/>
<path d="M256.084 174.868C256.13 174.971 256.169 175.077 256.202 175.185C256.315 175.493 256.404 175.809 256.47 176.13C256.711 177.378 256.687 178.663 256.401 179.902C255.955 181.865 255.074 183.702 253.822 185.278C252.129 187.316 250.209 189.153 248.098 190.753C245.842 192.618 243.275 194.613 241.305 197.434C240.285 198.883 239.57 200.524 239.205 202.257C238.861 204.104 238.654 205.973 238.583 207.851C238.51 209.846 238.233 211.828 237.757 213.767C237.235 215.788 236.474 217.739 235.488 219.578C233.414 223.462 230.407 226.77 226.738 229.205C222.94 231.691 218.658 232.884 214.898 234.755C213.035 235.631 211.32 236.793 209.814 238.198C208.417 239.59 207.288 241.226 206.483 243.027C204.886 246.544 204.227 250.205 203.339 253.536C202.926 255.155 202.42 256.749 201.822 258.309C201.253 259.744 200.525 261.112 199.653 262.386C198.845 263.531 197.902 264.575 196.844 265.494C196.359 265.947 195.831 266.32 195.34 266.706C194.849 267.091 194.327 267.408 193.805 267.681C192.068 268.7 190.18 269.434 188.212 269.856C186.975 270.114 185.715 270.245 184.452 270.248L183.47 270.198H183.134H183.47H184.452C185.706 270.165 186.955 270.013 188.18 269.745C190.12 269.301 191.978 268.557 193.687 267.538C194.197 267.265 194.675 266.917 195.191 266.563C195.707 266.208 196.198 265.804 196.676 265.351C197.717 264.429 198.643 263.385 199.436 262.243C200.29 260.978 201.003 259.624 201.561 258.204C202.147 256.651 202.643 255.065 203.046 253.455C203.929 250.137 204.569 246.457 206.154 242.89C206.969 241.054 208.115 239.383 209.535 237.962C211.063 236.533 212.806 235.352 214.699 234.463C218.49 232.567 222.779 231.355 226.508 228.925C231.891 225.355 235.771 219.928 237.409 213.68C237.88 211.759 238.157 209.796 238.235 207.819C238.297 205.923 238.505 204.035 238.857 202.17C239.232 200.402 239.964 198.73 241.007 197.254C243.021 194.402 245.618 192.4 247.881 190.555C250.017 188.984 251.966 187.174 253.692 185.16C254.94 183.611 255.83 181.805 256.296 179.871C256.584 178.649 256.626 177.381 256.42 176.142C256.24 175.297 256.059 174.874 256.084 174.868Z" fill="#455A64"/>
<path d="M176.037 118.574C176.037 118.574 181.151 153.849 189.02 157.274C192.985 159.008 196.173 157.516 198.342 153.545C200.511 149.574 206.048 120.718 206.048 120.718L190.741 120.357L190.169 126.094L184.265 115.112L176.037 118.574Z" fill="#936760"/>
<path d="M198.603 141.606C198.573 141.507 198.529 141.413 198.472 141.326L198.056 140.556L196.515 137.728C195.197 135.342 193.407 132.035 191.412 128.375C189.417 124.714 187.683 121.414 186.397 118.972L184.88 116.119L184.464 115.348C184.365 115.174 184.309 115.081 184.296 115.087C184.324 115.186 184.362 115.282 184.408 115.373L184.781 116.169C185.11 116.858 185.595 117.847 186.21 119.071C187.453 121.507 189.175 124.851 191.182 128.511C193.19 132.172 194.998 135.466 196.359 137.834C197.043 139.015 197.602 139.959 198.006 140.612L198.472 141.358C198.508 141.444 198.551 141.528 198.603 141.606Z" fill="#6F4C47"/>
<path d="M251.945 126.821L247.576 146.367L249.646 159.486H201.629L204.768 98.2509L216.738 97.2317L245.985 102.173L251.945 126.821Z" fill="#FE5E32"/>
<path d="M239.733 101.818C239.733 101.818 252.237 100.669 258.197 109.177C261.846 114.385 266.96 126.349 266.96 126.349L250.311 129.226L239.733 101.818Z" fill="#FE5E32"/>
<g opacity="0.3">
<path opacity="0.3" d="M247.315 127.051C246.47 125.322 245.15 123.869 243.511 122.861C241.871 121.853 239.979 121.332 238.055 121.358C237.222 121.358 236.284 121.582 235.842 122.284C235.401 122.986 235.644 123.993 235.967 124.807C236.383 125.87 236.936 126.995 237.955 127.505C238.701 127.878 239.578 127.859 240.379 128.126C241.336 128.494 242.211 129.047 242.952 129.754C243.618 130.25 244.192 130.858 244.649 131.551C244.956 132.138 245.178 132.765 245.308 133.415C246.122 136.609 246.768 143.203 247.576 146.398L248.471 143.645C248.496 141.018 248.519 138.391 248.539 135.764C248.564 132.781 248.564 129.723 247.315 127.051Z" fill="black"/>
</g>
<path d="M232.387 143.346C232.387 143.297 233.008 143.409 234.09 143.489C235.455 143.597 236.827 143.564 238.185 143.39C239.544 143.208 240.881 142.889 242.175 142.439C243.17 142.091 243.766 141.818 243.785 141.861C243.667 141.96 243.535 142.041 243.394 142.103C243.022 142.3 242.641 142.477 242.25 142.632C239.655 143.663 236.844 144.03 234.071 143.701C233.653 143.652 233.238 143.58 232.828 143.483C232.674 143.463 232.525 143.417 232.387 143.346Z" fill="#263238"/>
<path d="M211.43 144.204C211.43 144.129 218.267 146.068 226.601 148.554C234.935 151.04 241.722 153.079 241.697 153.16C241.672 153.24 234.861 151.295 226.52 148.809C218.18 146.323 211.43 144.285 211.43 144.204Z" fill="#263238"/>
<g opacity="0.3">
<path opacity="0.3" d="M232.729 143.427C233.341 144.335 234.19 145.059 235.183 145.52C236.177 145.981 237.277 146.162 238.366 146.044C239.405 145.927 240.389 145.513 241.199 144.852C242.009 144.191 242.611 143.31 242.934 142.315C239.687 143.568 236.169 143.951 232.729 143.427Z" fill="black"/>
</g>
<g opacity="0.3">
<path opacity="0.3" d="M239.876 152.538L239.702 152.606C235.414 153.371 231.393 152.606 227.272 151.14C223.152 149.673 219.336 147.572 215.538 145.441L239.876 152.538Z" fill="black"/>
</g>
<path d="M204.768 98.2512C204.768 98.2512 196.85 99.2207 193.78 105.982C191.67 110.805 189.885 115.763 188.435 120.824L204.594 124.459C204.594 124.459 207.136 110.787 207.329 105.982C207.546 100.706 207.757 98.0958 204.768 98.2512Z" fill="#FE5E32"/>
<path d="M203.245 126.622C203.102 125.116 203.056 123.603 203.109 122.091C203.064 120.581 203.116 119.07 203.264 117.567C203.407 119.07 203.453 120.582 203.401 122.091C203.445 123.603 203.394 125.117 203.245 126.622Z" fill="#263238"/>
<path d="M212.015 54.9271C216.284 49.7066 222.027 46.6986 228.795 46.5867C232.598 46.5246 234.177 47.3138 236.918 48.0534C239.657 48.7159 242.076 50.3194 243.754 52.5841C245.699 55.3435 247.334 58.4323 247.7 61.7821C248.073 65.2313 248.452 68.6993 248.191 72.1547C247.93 75.6102 246.998 79.0843 244.96 81.8935L236.166 83.4223C231.306 83.5839 226.383 83.7455 221.654 82.6392C216.924 81.533 212.332 78.9849 209.796 74.8396C206.278 69.0784 207.739 60.1538 212.015 54.9271Z" fill="#263238"/>
<path d="M242.293 86.8407C242.293 86.8407 242.436 87.0582 242.822 87.3006C243.37 87.6413 243.988 87.8537 244.63 87.9221C245.599 88.0293 246.576 87.8316 247.427 87.3565C248.46 86.7312 249.212 85.7318 249.527 84.5662C249.842 83.4006 249.695 82.1585 249.117 81.0982C248.623 80.2608 247.88 79.5983 246.992 79.2026C246.407 78.9381 245.77 78.8065 245.127 78.8173C244.892 78.8008 244.657 78.8458 244.444 78.9478C245.276 78.9811 246.094 79.1709 246.855 79.5071C247.638 79.9146 248.286 80.5407 248.72 81.3095C249.198 82.2653 249.308 83.3638 249.028 84.3954C248.749 85.4271 248.099 86.3196 247.203 86.9029C246.452 87.3462 245.589 87.5621 244.717 87.5243C243.873 87.456 243.049 87.2238 242.293 86.8407Z" fill="#E0E0E0"/>
<path d="M203.488 80.4517C203.572 79.4508 203.884 78.4823 204.4 77.6205C204.916 76.7587 205.622 76.0264 206.465 75.4798C207.321 74.9611 208.32 74.7278 209.318 74.8139C210.315 74.8999 211.26 75.3007 212.015 75.9584L213.401 77.6053C214.471 78.1026 215.361 78.9209 215.945 79.9466C216.53 80.9723 216.781 82.1545 216.663 83.3292C216.503 84.4999 216.012 85.6005 215.248 86.502C214.484 87.4035 213.479 88.0686 212.35 88.4192C211.214 88.7385 210.015 88.7605 208.868 88.4829C207.721 88.2054 206.664 87.6377 205.8 86.8344C204.954 86.0165 204.306 85.0165 203.906 83.9104C203.505 82.8043 203.362 81.6214 203.488 80.4517Z" fill="#263238"/>
<path d="M205.215 86.3805C204.877 85.8606 204.712 85.2473 204.743 84.6279C204.818 83.503 205.632 82.0301 206.751 80.6815C207.734 79.5226 208.93 78.5627 210.274 77.8537C211.306 77.3006 212.015 77.1017 211.99 77.0271C211.337 77.0814 210.702 77.2697 210.125 77.5802C208.686 78.2291 207.412 79.1935 206.396 80.4018C205.833 81.0599 205.354 81.7865 204.973 82.5646C204.629 83.1978 204.436 83.9017 204.408 84.6217C204.395 85.1146 204.531 85.5999 204.799 86.0138C205.048 86.2997 205.215 86.3991 205.215 86.3805Z" fill="#455A64"/>
<path d="M209.485 88.9785C209.628 88.9785 209.031 86.3123 209.877 83.1676C210.722 80.0229 212.499 77.9968 212.363 77.916C211.898 78.2751 211.503 78.7177 211.2 79.2211C210.394 80.3886 209.799 81.6886 209.442 83.0619C209.084 84.4338 208.966 85.8574 209.094 87.2694C209.119 87.8582 209.252 88.4373 209.485 88.9785Z" fill="#455A64"/>
<path d="M236.166 97.6856C236.11 94.5781 236.035 92.0922 236.035 92.0922C236.035 92.0922 243.207 91.3029 245.183 82.1173C246.172 77.5494 246.352 69.9734 246.302 63.7772C246.259 58.1838 241.504 50.6016 234.618 50.5768L231.554 50.2163L219.833 54.8775C219.015 54.916 218.241 55.2607 217.665 55.8433C217.09 56.4259 216.754 57.2037 216.725 58.0222L216.402 97.263L227.732 124.77L235.861 113.751L236.166 97.6856Z" fill="#936760"/>
<path d="M231.405 79.9608C231.473 79.4901 231.712 79.0611 232.076 78.7551C232.41 78.4683 232.828 78.2991 233.267 78.2732C233.706 78.2474 234.141 78.3665 234.506 78.6121C234.884 78.903 235.178 79.2899 235.356 79.7325C235.534 80.1751 235.59 80.6574 235.519 81.1292C235.318 81.412 235.059 81.6483 234.759 81.822C234.459 81.9957 234.124 82.1028 233.779 82.136C233.669 82.1423 233.559 82.1423 233.45 82.136C232.903 82.1333 232.377 81.9248 231.977 81.5518C231.768 81.3469 231.607 81.0974 231.508 80.8218C231.409 80.5463 231.374 80.2519 231.405 79.9608Z" fill="#6F4C47"/>
<path d="M241.747 70.1163C241.734 70.4267 241.599 70.7198 241.373 70.9324C241.146 71.1451 240.845 71.2604 240.535 71.2536C240.383 71.2577 240.231 71.2314 240.09 71.1761C239.948 71.1208 239.819 71.0377 239.71 70.9317C239.601 70.8256 239.515 70.6988 239.456 70.5588C239.397 70.4187 239.366 70.2683 239.366 70.1163C239.381 69.8063 239.515 69.5142 239.742 69.3019C239.968 69.0896 240.268 68.9738 240.578 68.9789C240.73 68.9748 240.881 69.0011 241.023 69.0564C241.165 69.1117 241.294 69.1948 241.403 69.3009C241.511 69.4069 241.598 69.5337 241.657 69.6737C241.716 69.8138 241.747 69.9643 241.747 70.1163Z" fill="#263238"/>
<path d="M244.021 67.2139C243.866 67.3569 243.002 66.6422 241.722 66.5924C240.441 66.5427 239.472 67.1145 239.341 66.9529C239.211 66.7913 239.441 66.6049 239.863 66.3314C240.44 65.9803 241.11 65.8133 241.784 65.8529C242.45 65.8888 243.087 66.1346 243.605 66.5551C243.978 66.8597 244.096 67.1456 244.021 67.2139Z" fill="#263238"/>
<path d="M235.985 76.903C236.669 76.7264 237.373 76.6386 238.08 76.642C238.409 76.642 238.701 76.5798 238.788 76.3561C238.837 76.0219 238.781 75.6808 238.627 75.3803C238.359 74.5724 238.086 73.721 237.794 72.8384C236.65 69.2214 235.836 66.2569 235.985 66.2134C236.135 66.1699 237.179 69.0598 238.322 72.6769C238.596 73.5656 238.863 74.417 239.111 75.2312C239.297 75.6345 239.332 76.0907 239.211 76.5177C239.159 76.6315 239.08 76.7314 238.982 76.8092C238.883 76.8869 238.768 76.9404 238.645 76.9651C238.462 77.0076 238.274 77.0243 238.086 77.0148C237.384 77.0686 236.678 77.031 235.985 76.903Z" fill="#263238"/>
<path d="M236.035 92.0859C231.667 91.9134 227.433 90.5322 223.804 88.0959C223.804 88.0959 226.756 94.7024 236.085 94.3419L236.035 92.0859Z" fill="#6F4C47"/>
<path d="M232.169 77.5804C232.381 77.5804 232.306 78.9663 233.412 80.0167C234.519 81.067 236.035 80.9986 236.035 81.1913C236.035 81.2783 235.693 81.4461 235.066 81.4274C234.251 81.3932 233.475 81.0742 232.872 80.5263C232.297 79.9975 231.947 79.2674 231.896 78.4878C231.902 77.9036 232.076 77.568 232.169 77.5804Z" fill="#263238"/>
<path d="M243.748 62.3912C243.518 62.6895 242.548 62.4285 241.399 62.4596C240.249 62.4907 239.285 62.7393 239.049 62.4596C238.944 62.3166 239.087 62.0183 239.497 61.7262C240.061 61.3601 240.72 61.1677 241.392 61.1731C242.061 61.1503 242.721 61.3277 243.288 61.6827C243.748 61.95 243.866 62.2421 243.748 62.3912Z" fill="#263238"/>
<path d="M226.862 69.7809C226.847 70.0947 226.957 70.4019 227.167 70.6349C227.378 70.8679 227.673 71.0077 227.987 71.0238C228.138 71.0375 228.29 71.021 228.434 70.9754C228.578 70.9299 228.712 70.8561 228.828 70.7584C228.943 70.6607 229.038 70.541 229.107 70.4063C229.176 70.2715 229.218 70.1244 229.23 69.9735C229.245 69.6596 229.135 69.3525 228.924 69.1195C228.713 68.8865 228.419 68.7466 228.105 68.7305C227.954 68.7161 227.802 68.7319 227.657 68.7771C227.512 68.8224 227.378 68.8961 227.262 68.994C227.146 69.0918 227.051 69.2118 226.983 69.347C226.914 69.4821 226.873 69.6296 226.862 69.7809Z" fill="#263238"/>
<path d="M226.495 66.7541C226.638 66.9095 227.552 66.2569 228.832 66.2818C230.112 66.3067 231.038 66.9654 231.181 66.8101C231.324 66.6547 231.107 66.462 230.703 66.1886C230.16 65.7954 229.509 65.5785 228.838 65.5671C228.172 65.5509 227.519 65.7491 226.974 66.1326C226.557 66.4061 226.421 66.6795 226.495 66.7541Z" fill="#263238"/>
<path d="M225.756 64.0008C226.004 64.2992 226.999 64.0008 228.186 64.0008C229.373 64.0008 230.38 64.237 230.616 63.9325C230.715 63.7895 230.566 63.4974 230.131 63.2116C229.534 62.8623 228.852 62.6859 228.161 62.7019C227.474 62.6968 226.799 62.8864 226.216 63.2488C225.793 63.5596 225.65 63.8579 225.756 64.0008Z" fill="#263238"/>
<path d="M218.329 73.5966C218.366 72.9005 217.658 71.2349 216.98 71.1106C215.178 70.7315 211.884 70.6942 211.604 75.3181C211.213 81.6324 217.633 80.7188 217.658 80.5386C217.683 80.3584 218.205 75.9769 218.329 73.5966Z" fill="#936760"/>
<path d="M216.06 78.1025C216.029 78.1025 215.942 78.1709 215.75 78.2455C215.482 78.3401 215.189 78.3289 214.929 78.2144C214.277 77.9285 213.78 76.8285 213.817 75.6911C213.834 75.1476 213.972 74.6148 214.221 74.1312C214.291 73.9366 214.408 73.7625 214.562 73.6247C214.716 73.4869 214.902 73.3897 215.103 73.3419C215.231 73.317 215.363 73.3376 215.476 73.4001C215.59 73.4626 215.678 73.563 215.725 73.6837C215.799 73.864 215.756 73.9883 215.787 74.0007C215.818 74.0131 215.93 73.9012 215.893 73.6402C215.869 73.4815 215.789 73.3362 215.669 73.23C215.585 73.1552 215.486 73.0988 215.379 73.0645C215.272 73.0302 215.159 73.0189 215.047 73.0312C214.784 73.0654 214.535 73.1668 214.322 73.3258C214.11 73.4848 213.942 73.6958 213.836 73.9385C213.535 74.4686 213.366 75.0634 213.345 75.6725C213.307 76.9528 213.885 78.1584 214.786 78.5003C214.952 78.5598 215.13 78.5812 215.305 78.5629C215.48 78.5447 215.649 78.4871 215.799 78.3946C216.036 78.2641 216.079 78.1149 216.06 78.1025Z" fill="#6F4C47"/>
<path d="M216.719 71.1045L218.329 72.77C225.258 66.1388 238.807 49.5264 238.049 50.5145C234.89 49.3352 231.487 48.9656 228.148 49.4394C222.99 50.3157 213.233 52.8948 213.369 58.9792C213.506 65.0636 216.719 71.1045 216.719 71.1045Z" fill="#263238"/>
<path d="M216.868 86.8405C216.868 86.8405 216.725 87.058 216.346 87.3004C215.796 87.6419 215.176 87.8544 214.532 87.9218C213.565 88.029 212.59 87.8312 211.741 87.3563C210.708 86.7309 209.956 85.732 209.64 84.5667C209.324 83.4014 209.469 82.1593 210.044 81.0979C210.541 80.2601 211.286 79.5977 212.176 79.2024C212.761 78.9366 213.398 78.805 214.041 78.817C214.278 78.8028 214.515 78.8476 214.73 78.9476C213.901 78.9902 213.088 79.1884 212.332 79.5317C211.549 79.9398 210.901 80.5658 210.467 81.3341C209.989 82.2899 209.879 83.3884 210.158 84.42C210.438 85.4517 211.088 86.3443 211.983 86.9275C212.746 87.3762 213.623 87.5923 214.507 87.549C215.332 87.4667 216.134 87.2261 216.868 86.8405Z" fill="#E0E0E0"/>
<path d="M207.54 69.7122C207.562 69.5872 207.595 69.4645 207.639 69.3455C207.754 69.0025 207.897 68.6699 208.068 68.3512C208.722 67.1804 209.623 66.1665 210.709 65.3805C212.322 64.2298 214.119 63.3638 216.023 62.8199C218.136 62.1363 220.523 61.577 222.86 60.595C225.059 59.6745 227.145 58.5024 229.074 57.1022C230.657 55.9535 232.131 54.6638 233.481 53.249C234.386 52.291 235.237 51.2826 236.029 50.2286L236.65 49.3523C236.727 49.2444 236.815 49.1445 236.911 49.054C236.867 49.1718 236.807 49.2827 236.731 49.3833C236.594 49.5946 236.408 49.9054 236.11 50.2907C235.356 51.3844 234.525 52.4228 233.624 53.3982C232.288 54.8469 230.817 56.1642 229.23 57.3322C227.281 58.7642 225.167 59.9577 222.934 60.8871C220.696 61.7447 218.414 62.4832 216.098 63.0996C214.217 63.6203 212.436 64.4499 210.828 65.5545C209.752 66.3122 208.845 67.2832 208.161 68.4071C207.701 69.2213 207.577 69.7247 207.54 69.7122Z" fill="#455A64"/>
<path d="M209.379 70.7066C209.364 70.2343 209.448 69.764 209.628 69.3269C210.103 68.1187 210.93 67.0814 212.002 66.35C213.32 65.3681 215.203 64.759 217.272 64.2867C219.526 63.837 221.723 63.1388 223.823 62.2047C225.911 61.2483 227.873 60.0376 229.665 58.6C231.124 57.4225 232.465 56.1049 233.667 54.666C234.475 53.6904 235.22 52.665 235.898 51.5959L236.433 50.7134C236.491 50.6071 236.56 50.5072 236.638 50.415C236.606 50.5319 236.555 50.6431 236.489 50.7444C236.364 50.9868 236.203 51.2913 236.004 51.6642C235.362 52.7648 234.639 53.816 233.841 54.809C231.189 58.1058 227.806 60.74 223.96 62.503C221.84 63.4499 219.62 64.1506 217.341 64.5912C215.271 65.0511 213.432 65.6229 212.133 66.5551C211.081 67.2501 210.252 68.2343 209.746 69.3891C209.583 69.8159 209.461 70.257 209.379 70.7066Z" fill="#455A64"/>
<path d="M176.677 122.017C176.322 121.886 175.856 116.859 175.856 116.859C175.856 116.859 170.829 112.838 170.145 111.203C169.461 109.568 169.561 105.672 169.561 105.672L177.795 100.078C177.795 100.078 182.662 104.429 183.936 106.144C184.65 107.101 185.179 109.743 185.552 111.88C185.85 113.698 185.919 115.546 185.757 117.381L185.639 118.798C185.639 118.798 182.326 124.118 176.677 122.017Z" fill="#936760"/>
<path d="M170.524 112.191C169.932 111.666 169.37 111.107 168.84 110.519C167.771 109.363 166.584 108.282 167.597 107.058C167.749 106.855 167.942 106.688 168.164 106.565C168.386 106.443 168.631 106.37 168.883 106.349C168.883 106.349 168.262 105.274 168.803 104.597C168.955 104.397 169.153 104.236 169.38 104.128C169.607 104.02 169.856 103.967 170.108 103.975C170.108 103.975 169.306 102.434 170.045 101.396C170.327 101.017 170.709 100.724 171.149 100.551C171.588 100.377 172.067 100.33 172.531 100.414C172.531 100.414 169.194 93.6149 168.995 93.2668C168.249 91.9803 168.318 90.5758 169.809 90.4204C170.356 90.3645 170.829 90.7933 172.246 92.9064C173.663 95.0194 176.037 98.593 176.037 98.593C176.037 98.593 178.628 100.787 179.927 102.017C181.226 103.248 183.942 106.132 184.396 106.989C185.558 109.22 185.309 112.813 185.309 112.813L175.863 116.859C175.863 116.859 171.133 112.732 170.524 112.191Z" fill="#936760"/>
<path d="M169.169 106.585C169.561 106.816 169.935 107.076 170.288 107.362L171.475 108.245C171.715 108.417 171.939 108.611 172.146 108.823C172.388 109.057 172.545 109.365 172.594 109.699C172.625 109.871 172.609 110.049 172.547 110.213C172.486 110.377 172.382 110.521 172.246 110.631C171.981 110.814 171.656 110.888 171.338 110.836C171.072 110.808 170.81 110.754 170.555 110.675C170.313 110.606 170.095 110.538 169.89 110.47C169.492 110.339 169.169 110.221 168.952 110.128C168.734 110.034 168.622 109.979 168.628 109.96C168.635 109.941 169.132 110.103 169.934 110.327C170.399 110.47 170.875 110.576 171.357 110.644C171.622 110.675 171.89 110.614 172.115 110.47C172.22 110.379 172.3 110.263 172.347 110.132C172.394 110.001 172.406 109.861 172.382 109.724C172.335 109.436 172.198 109.171 171.991 108.965C171.8 108.76 171.592 108.571 171.369 108.4L170.207 107.474C169.836 107.208 169.489 106.911 169.169 106.585Z" fill="#6F4C47"/>
<path d="M177.391 104.572C177.124 104.096 176.972 103.563 176.95 103.018C176.856 102.481 176.888 101.93 177.043 101.408C177.112 101.408 177.043 102.129 177.162 102.999C177.28 103.869 177.454 104.553 177.391 104.572Z" fill="#6F4C47"/>
<path d="M181.966 105.261C180.764 104.724 179.432 104.545 178.131 104.746C176.835 104.946 175.577 105.344 174.402 105.926C173.457 106.374 172.426 107.033 172.295 108.071C172.165 109.108 173.14 110.103 174.197 110.308C175.272 110.427 176.358 110.21 177.304 109.686C178.243 109.15 179.246 108.733 180.288 108.443" fill="#936760"/>
<path d="M180.3 108.475C180.3 108.475 180.02 108.543 179.529 108.729C178.849 109.008 178.183 109.321 177.534 109.668C177.078 109.903 176.602 110.099 176.111 110.252C175.541 110.439 174.936 110.501 174.34 110.432C173.664 110.344 173.049 109.997 172.625 109.463C172.394 109.183 172.243 108.846 172.19 108.487C172.15 108.111 172.224 107.733 172.401 107.399C172.786 106.791 173.342 106.309 173.998 106.013C174.579 105.722 175.177 105.465 175.788 105.243C176.825 104.855 177.919 104.645 179.026 104.621C179.771 104.603 180.513 104.715 181.22 104.951C181.413 105.015 181.602 105.092 181.785 105.181C181.849 105.209 181.909 105.245 181.966 105.286C181.966 105.286 181.698 105.174 181.195 105.031C180.49 104.834 179.758 104.748 179.026 104.777C177.939 104.827 176.869 105.056 175.856 105.454C175.255 105.675 174.668 105.932 174.098 106.225C173.48 106.504 172.957 106.958 172.594 107.53C172.432 107.819 172.367 108.152 172.407 108.481C172.452 108.802 172.583 109.104 172.786 109.357C173.179 109.848 173.743 110.172 174.365 110.264C174.935 110.331 175.513 110.278 176.061 110.109C176.546 109.963 177.018 109.778 177.472 109.556C178.131 109.221 178.81 108.926 179.505 108.673C179.696 108.611 179.891 108.561 180.089 108.524C180.156 108.498 180.228 108.481 180.3 108.475Z" fill="#6F4C47"/>
<path d="M169.287 106.672C170.86 107.847 172.395 109.22 173.812 110.544C174.199 110.969 174.693 111.284 175.241 111.458C175.682 111.551 176.447 110.836 176.801 110.525L171.723 105.193" fill="#936760"/>
<path d="M171.723 105.193C171.878 105.303 172.02 105.43 172.146 105.572L173.24 106.678C174.166 107.623 175.446 108.947 176.882 110.451L176.956 110.532L176.869 110.606C176.598 110.85 176.314 111.078 176.018 111.29C175.89 111.375 175.755 111.447 175.614 111.507C175.539 111.538 175.459 111.557 175.378 111.563C175.296 111.58 175.211 111.58 175.129 111.563C174.848 111.48 174.584 111.345 174.352 111.166C173.899 110.818 173.538 110.438 173.159 110.103C172.413 109.419 171.742 108.81 171.17 108.307C170.599 107.803 170.12 107.406 169.791 107.132C169.614 106.998 169.446 106.853 169.287 106.697C169.484 106.801 169.67 106.926 169.84 107.07C170.188 107.319 170.679 107.691 171.264 108.189C171.848 108.686 172.544 109.276 173.29 109.96C173.669 110.289 174.048 110.675 174.477 110.998C174.688 111.161 174.928 111.284 175.185 111.358C175.312 111.373 175.441 111.361 175.563 111.322C175.685 111.284 175.798 111.22 175.894 111.135C176.185 110.928 176.465 110.706 176.733 110.47V110.581C175.297 109.071 174.042 107.729 173.14 106.759L172.09 105.61C171.96 105.478 171.837 105.339 171.723 105.193Z" fill="#6F4C47"/>
<path d="M170.294 103.577L175.415 109.345C175.754 109.775 176.164 110.145 176.627 110.438C176.859 110.583 177.124 110.668 177.398 110.686C177.671 110.703 177.944 110.652 178.193 110.538C178.503 110.324 178.732 110.012 178.844 109.653C178.957 109.294 178.947 108.908 178.815 108.555C178.538 107.852 178.114 107.216 177.572 106.691C176.026 104.938 174.62 103.068 173.364 101.097" fill="#936760"/>
<path d="M173.377 101.079C173.377 101.079 173.433 101.135 173.52 101.259L173.892 101.8C174.222 102.266 174.694 102.937 175.303 103.751C175.912 104.565 176.677 105.504 177.559 106.517C178.059 107.024 178.478 107.605 178.802 108.238C178.964 108.596 179.027 108.991 178.982 109.382C178.95 109.795 178.764 110.181 178.46 110.463C178.302 110.598 178.115 110.696 177.914 110.751C177.714 110.806 177.503 110.816 177.298 110.78C176.91 110.723 176.543 110.564 176.235 110.32C175.704 109.85 175.211 109.336 174.763 108.785L172.407 106.094C171.755 105.342 171.226 104.721 170.835 104.267L170.412 103.745C170.359 103.689 170.313 103.626 170.275 103.559C170.275 103.559 170.338 103.608 170.443 103.714L170.897 104.193L172.519 105.976L174.912 108.636C175.356 109.173 175.842 109.674 176.366 110.134C176.645 110.355 176.977 110.498 177.329 110.55C177.505 110.579 177.684 110.571 177.855 110.525C178.027 110.478 178.187 110.396 178.324 110.283C178.586 110.035 178.745 109.698 178.771 109.338C178.812 108.986 178.756 108.63 178.61 108.307C178.283 107.688 177.863 107.122 177.367 106.629C176.484 105.61 175.738 104.646 175.142 103.82C174.545 102.993 174.085 102.309 173.781 101.825C173.631 101.582 173.513 101.396 173.439 101.265C173.411 101.206 173.391 101.143 173.377 101.079Z" fill="#6F4C47"/>
<path d="M181.189 114.31C180.998 114.411 180.783 114.456 180.567 114.441C180.063 114.469 179.559 114.379 179.094 114.18C178.62 113.989 178.195 113.694 177.851 113.316C177.701 113.169 177.588 112.988 177.522 112.788C177.968 113.308 178.53 113.717 179.162 113.981C179.795 114.246 180.48 114.358 181.164 114.31H181.189Z" fill="#6F4C47"/>
<path d="M246.315 98.0521L244.525 120.637C244.494 121.023 244.313 121.382 244.02 121.636C243.727 121.89 243.345 122.018 242.958 121.992L230.373 121.147C230.177 121.135 229.984 121.084 229.808 120.996C229.631 120.909 229.474 120.786 229.346 120.637C229.218 120.487 229.121 120.313 229.062 120.125C229.002 119.937 228.981 119.739 229 119.543L231.057 96.9769C231.09 96.5938 231.272 96.2389 231.564 95.9881C231.855 95.7372 232.233 95.6103 232.617 95.6345L244.941 96.4362C245.138 96.4495 245.331 96.5021 245.507 96.5911C245.684 96.68 245.841 96.8034 245.969 96.9541C246.097 97.1047 246.194 97.2795 246.253 97.4681C246.312 97.6567 246.333 97.8553 246.315 98.0521Z" fill="#455A64"/>
<path d="M264.331 126.802C264.331 126.802 268.091 152.209 267.942 155.621C267.793 159.033 263.934 166.609 258.738 167.348C253.542 168.088 248.645 163.34 248.496 157.106C248.347 150.872 247.576 131.159 247.576 131.159L251.454 129.021L264.331 126.802Z" fill="#936760"/>
<path d="M242.921 105.809C242.921 105.809 246.812 108.201 247.961 108.829C249.111 109.457 248.962 114.093 248.962 114.093L255.513 129.319L247.62 132.147C247.62 132.147 244.804 126.821 243.996 126.15C243.443 125.715 242.81 125.394 242.132 125.205C242.132 125.205 241.728 126.684 240.516 126.013C239.554 125.379 238.692 124.606 237.955 123.72C237.955 123.72 236.874 124.397 236.47 123.589C236.066 122.781 235.395 121.029 235.395 121.029C235.395 121.029 237.682 118.064 238.627 118.064C239.571 118.064 244.419 118.332 244.419 118.332C244.419 118.332 244.152 117.928 242.803 117.393C241.454 116.859 233.437 114.491 233.058 114.348C232.493 114.13 231.859 112.657 233.611 112.521C235.364 112.384 245.227 114.149 245.227 114.149C245.227 114.149 245.768 111.601 245.364 111.042C244.96 110.482 241.436 108.232 242.921 105.809Z" fill="#936760"/>
<path d="M237.924 123.633C237.856 123.266 237.867 122.889 237.956 122.526C238.04 122.105 238.258 121.721 238.577 121.433C238.997 121.129 239.507 120.975 240.025 120.998C240.911 120.941 241.8 120.972 242.679 121.091C243.046 121.115 243.408 121.199 243.748 121.339C243.748 121.433 242.082 121.153 240.019 121.29C239.562 121.267 239.11 121.389 238.726 121.638C238.448 121.887 238.251 122.214 238.161 122.576C238.101 122.932 238.022 123.285 237.924 123.633Z" fill="#6F4C47"/>
<path d="M239.491 124.086C240.006 124.298 240.511 124.536 241.001 124.801C241.531 124.975 242.05 125.183 242.555 125.423C241.975 125.461 241.395 125.336 240.883 125.062C240.333 124.881 239.849 124.541 239.491 124.086Z" fill="#6F4C47"/>
<path d="M244.761 114.093C245.285 114.172 245.772 114.413 246.153 114.781C246.534 115.15 246.79 115.629 246.886 116.15C246.805 116.15 246.538 115.528 245.948 114.994C245.357 114.459 244.73 114.174 244.761 114.093Z" fill="#6F4C47"/>
<path d="M177.51 250.056C177.423 250.056 180.816 235.762 185.092 218.186C189.368 200.61 192.898 186.403 192.985 186.403C193.072 186.403 189.678 200.697 185.402 218.279C181.127 235.861 177.597 250.075 177.51 250.056Z" fill="#455A64"/>
<path d="M270.515 270.801C270.515 270.888 211.225 270.963 138.101 270.963C64.9766 270.963 5.668 270.888 5.668 270.801C5.668 270.714 64.9518 270.639 138.101 270.639C211.25 270.639 270.515 270.708 270.515 270.801Z" fill="#263238"/>
<path d="M239.646 46.6799L241.473 40.086C239.054 36.1668 238.189 31.4846 239.047 26.9599C239.906 22.4351 242.426 18.3951 246.112 15.6342C249.798 12.8733 254.384 11.5912 258.967 12.04C263.551 12.4887 267.801 14.6359 270.881 18.0594C273.962 21.4828 275.651 25.9348 275.615 30.5402C275.58 35.1455 273.823 39.571 270.69 42.9465C267.556 46.322 263.274 48.4034 258.684 48.7815C254.094 49.1595 249.529 47.8069 245.886 44.9895L239.646 46.6799Z" fill="white"/>
<path d="M239.646 46.68L240.062 46.5557L241.262 46.2201L245.873 44.9274L245.83 45.0454C245.818 45.0318 245.811 45.0141 245.811 44.9957C245.811 44.9774 245.818 44.9597 245.83 44.946C245.844 44.9372 245.86 44.9325 245.876 44.9325C245.893 44.9325 245.909 44.9372 245.923 44.946C248.373 46.8261 251.26 48.0536 254.313 48.5133C256.268 48.8137 258.258 48.7885 260.205 48.4388C263.83 47.8093 267.181 46.1024 269.822 43.5404C272.462 40.9785 274.27 37.6804 275.009 34.0762C275.547 31.3235 275.454 28.4844 274.735 25.7731C273.999 22.9414 272.586 20.3309 270.618 18.1658C268.65 16.0007 266.185 14.3458 263.437 13.3433C260.613 12.3068 257.578 11.983 254.6 12.4005C251.621 12.8181 248.792 13.9641 246.363 15.7369C243.933 17.5097 241.979 19.8547 240.673 22.5637C239.367 25.2727 238.749 28.2622 238.875 31.267C239.005 34.3643 239.921 37.3776 241.535 40.0238C241.542 40.0441 241.542 40.0657 241.535 40.086C240.914 42.2052 240.46 43.8149 240.137 44.9522C239.982 45.5053 239.857 45.9217 239.77 46.1952C239.683 46.4686 239.64 46.6364 239.64 46.6364C239.64 46.6364 239.671 46.4997 239.739 46.2201C239.808 45.9404 239.926 45.5116 240.075 44.9771C240.373 43.8397 240.821 42.1804 241.392 40.0052V40.0673C239.437 36.9234 238.476 33.2626 238.634 29.5636C238.793 25.8646 240.064 22.2995 242.281 19.3345C245.124 15.5378 249.312 12.9722 253.986 12.1633C258.66 11.3545 263.466 12.3636 267.42 14.984C268.652 15.8194 269.783 16.7955 270.789 17.8926C271.802 19.0035 272.685 20.2276 273.418 21.5407C275.467 25.3856 276.126 29.8203 275.282 34.0948C274.532 37.7541 272.694 41.1011 270.007 43.6964C267.321 46.2918 263.913 48.0142 260.23 48.6376C258.255 48.9863 256.237 49.0031 254.257 48.6874C251.173 48.1942 248.265 46.9261 245.805 45.0019L245.911 44.9025C245.917 44.9089 245.923 44.9166 245.926 44.9251C245.93 44.9337 245.932 44.9429 245.932 44.9522C245.932 44.9615 245.93 44.9707 245.926 44.9793C245.923 44.9878 245.917 44.9955 245.911 45.0019L241.218 46.2449L240.019 46.5681L239.646 46.68Z" fill="#263238"/>
<path d="M248.912 30.9004L251.063 28.7438L255.214 32.4355L263.362 24.5923L265.363 26.7489L254.91 36.587L248.912 30.9004Z" fill="#FE5E32"/>
</svg>
